<?xml version="1.0" encoding="utf-8"?>
<!-- Generator: Adobe Illustrator 24.1.2, SVG Export Plug-In . SVG Version: 6.00 Build 0)  -->
<svg version="1.1" id="Layer_1" xmlns="http://www.w3.org/2000/svg" xmlns:xlink="http://www.w3.org/1999/xlink" x="0px" y="0px"
	 viewBox="0 0 144.8 149.4" style="enable-background:new 0 0 144.8 149.4;" xml:space="preserve">
<g>
	<path d="M39.1,77L76,30.9v-0.3H42.3v-6.2h44.9v4.5L50.5,74.9v0.3h37.2v6.2H39.1V77z"/>
</g>
<g>
	<path d="M87,66.5l30.8,19.3l-3.8,5.9L90.6,77L78.9,95l21.6,13.6l-3.8,5.8l-21.6-13.6l-15.9,24.6l-7.4-4.6L87,66.5z"/>
</g>
<g>
	<path d="M60.9,3.4l67.5,25.7l11.5,71.3l-56,45.6l-67.5-25.7L4.9,49L60.9,3.4 M60.3,0L1.6,47.8l12,74.7l70.7,26.9l58.7-47.8
		l-12-74.7L60.3,0L60.3,0z"/>
</g>
<g>
	<path d="M88.6,4.4l52.8,49.3L125.2,124l-69.1,21.1L3.3,95.9l16.3-70.4L88.6,4.4 M89.4,1L17,23.1L0,96.9l55.3,51.6l72.4-22.1
		l17-73.7L89.4,1L89.4,1z"/>
</g>
</svg>
