<?xml version="1.0" encoding="utf-8"?>
<!-- Generator: Adobe Illustrator 24.1.2, SVG Export Plug-In . SVG Version: 6.00 Build 0)  -->
<svg version="1.1" id="Layer_1" xmlns="http://www.w3.org/2000/svg" xmlns:xlink="http://www.w3.org/1999/xlink" x="0px" y="0px"
	 viewBox="0 0 626 490.4" style="enable-background:new 0 0 626 490.4;" xml:space="preserve">
<style type="text/css">
	.st0{opacity:0.5;fill:#FF725E;enable-background:new    ;}
</style>
<path class="st0" d="M100.4,8c-47.2,12-67,28.4-77,40c-6.3,7.3-10.4,14.1-13,19c-1.1,2.2-23.6,47.7,3,90c21.8,34.7,59.7,40.3,65,41
	c48.2,9.1,87.4,23.4,116,36c15.1,6.7,51.2,23.5,93,53c23.1,16.3,53.1,37.5,84,73c19.7,22.6,25.1,34.2,52,64c18.1,20,34.2,35.3,45,45
	c42.1,26.4,90.3,27.7,117,5c24.4-20.8,30.7-61.6,31-64c1-6.8,0.2-8,1-27c1-22.5,2.3-44.5,4-66c2.8-36.1-0.3-34.6,1-95
	c1.2-54.7,3.3-51,3-88c-0.2-28.3-1.5-39.7-2-81c-0.3-22.2-0.1-40.3,0-52c-70,0-140,0-210,0c-37.7,0-75.3,0.4-113,0
	c-23.3-0.3-63.2-0.9-115,0C132.6,1.9,118.1,3.5,100.4,8z"/>
</svg>
