<?xml version="1.0" encoding="utf-8"?>
<!-- Generator: Adobe Illustrator 24.1.2, SVG Export Plug-In . SVG Version: 6.00 Build 0)  -->
<svg version="1.1" id="Layer_1" xmlns="http://www.w3.org/2000/svg" xmlns:xlink="http://www.w3.org/1999/xlink" x="0px" y="0px"
	 viewBox="0 0 626 417.8" style="enable-background:new 0 0 626 417.8;" xml:space="preserve">
<style type="text/css">
	.st0{opacity:0.4;fill:#FF725E;}
</style>
<path class="st0" d="M1.8,0c-7.4,55.1,8.5,113,43.1,156.5c46.8,59,123.2,88.6,198.3,94.6c32.8,2.6,68,1.9,95.3,20.3
	c43.4,29.1,49.3,94.2,91.1,125.5c26.7,20,57.9,19.3,87.1,20.7c48.9,2.3,87.6-10.3,109.3-19.3C626,155.8,626,0,626,0l0,0
	c0,0,0,0-290,0C224.6,0,113.2,0,1.8,0z"/>
</svg>
