<?xml version="1.0" encoding="utf-8"?>
<!-- Generator: Adobe Illustrator 24.1.2, SVG Export Plug-In . SVG Version: 6.00 Build 0)  -->
<svg class="animated" version="1.1" id="Layer_1" xmlns="http://www.w3.org/2000/svg" xmlns:xlink="http://www.w3.org/1999/xlink" xmlns:svgjs="http://svgjs.com/svgjs" x="0px" y="0px"
	 viewBox="0 0 500 500" style="enable-background:new 0 0 500 500;">
<style type="text/css">
	.st0{fill:#FFFFFF;}
	.st1{fill:#E0E0E0;}
	.st2{opacity:0.3;}
	.st3{fill:none;}
	.st4{fill-rule:evenodd;clip-rule:evenodd;fill:#E0E0E0;}
	.st5{fill:#EBEBEB;}
	.st6{fill:#263238;}
	.st7{fill:#FF725E;}
	.st8{fill:#455A64;}
	.st9{fill:#FAFAFA;}
	.st10{fill:#FFBE9D;}
	.st11{opacity:0.6;}
	.st12{fill:#EB996E;}
	.st13{fill:#686767;}
	.st14{fill:#FFAD9F;}
	.st15{fill:#F9F7F7;}
	.st16{font-family:'MyriadPro-Regular';}
	.st17{font-size:12px;}
	svg:not(.animated) .animable {opacity: 0;}.animated #background-complete--inject-15 {animation: 1s 1 forwards cubic-bezier(.36,-0.01,.5,1.38) fadeIn;animation-delay: 0s;}.animated #Floor--inject-15 {animation: 1s 1 forwards cubic-bezier(.36,-0.01,.5,1.38) zoomOut;animation-delay: 0s;}.animated #Screens--inject-15 {animation: 1s 1 forwards cubic-bezier(.36,-0.01,.5,1.38) slideDown;animation-delay: 0s;}.animated #Character--inject-15 {animation: 1s 1 forwards cubic-bezier(.36,-0.01,.5,1.38) slideLeft;animation-delay: 0s;}.animated #Plant--inject-15 {animation: 1s 1 forwards cubic-bezier(.36,-0.01,.5,1.38) zoomIn;animation-delay: 0s;}.animated #Devices--inject-15 {animation: 1s 1 forwards cubic-bezier(.36,-0.01,.5,1.38) slideRight;animation-delay: 0s;}.animated #Desk--inject-15 {animation: 1s 1 forwards cubic-bezier(.36,-0.01,.5,1.38) slideLeft;animation-delay: 0s;}            @keyframes fadeIn {                0% {                    opacity: 0;                }                100% {                    opacity: 1;                }            }                    @keyframes zoomOut {                0% {                    opacity: 0;                    transform: scale(1.5);                }                100% {                    opacity: 1;                    transform: scale(1);                }            }                    @keyframes slideDown {                0% {                    opacity: 0;                    transform: translateY(-30px);                }                100% {                    opacity: 1;                    transform: translateY(0);                }            }                    @keyframes slideLeft {                0% {                    opacity: 0;                    transform: translateX(-30px);                }                100% {                    opacity: 1;                    transform: translateX(0);                }            }                    @keyframes zoomIn {                0% {                    opacity: 0;                    transform: scale(0.5);                }                100% {                    opacity: 1;                    transform: scale(1);                }            }                    @keyframes slideRight {                0% {                    opacity: 0;                    transform: translateX(30px);                }                100% {                    opacity: 1;                    transform: translateX(0);                }            }
</style>
<g id="background-complete--inject-106">
	<rect x="68.7" y="116.4" class="st0" width="125.2" height="83.8"/>
	<path class="st1" d="M194,200.3c0,0,0-0.5,0-1.5s0-2.5,0-4.4c0-3.9,0-9.6,0-16.9c0-14.6-0.1-35.5-0.1-61l0.2,0.2H68.9l0,0l0.2-0.2
		c0,29.9,0,58.3,0,83.8l-0.2-0.2l90.2,0.1l25.8,0.1h6.9h1.8h0.6h-2.3H185l-25.7,0.1l-90.3,0.1h-0.2v-0.2c0-25.6,0-54,0-83.8v-0.2
		h0.2h125.2h0.2v0.2c0,25.6-0.1,46.6-0.1,61.1c0,7.3,0,12.9,0,16.8c0,1.9,0,3.4,0,4.4S194,200.3,194,200.3z"/>
	<path class="st1" d="M68.7,123.9c0-0.1,28-0.2,62.6-0.2s62.6,0.1,62.6,0.2s-28,0.2-62.6,0.2S68.7,124,68.7,123.9z"/>
	<g class="st2">
		<path class="st1" d="M73.7,120.1c0,0.6-0.4,1-1,1s-1-0.4-1-1s0.4-1,1-1S73.7,119.6,73.7,120.1z"/>
	</g>
	<g class="st2">
		<circle class="st1" cx="76.1" cy="120.1" r="1"/>
	</g>
	<g class="st2">
		<path class="st1" d="M80.5,120.1c0,0.6-0.4,1-1,1s-1-0.4-1-1s0.4-1,1-1S80.5,119.6,80.5,120.1z"/>
	</g>
	<rect x="79.5" y="132.6" class="st1" width="33.4" height="33.4"/>
	<path class="st1" d="M176.8,142.1c0,0.1-13,0.2-29.1,0.2s-29.1-0.1-29.1-0.2s13-0.2,29.1-0.2S176.8,142,176.8,142.1z"/>
	<path class="st1" d="M176.8,148.3c0,0.1-13,0.2-29.1,0.2s-29.1-0.1-29.1-0.2s13-0.2,29.1-0.2S176.8,148.2,176.8,148.3z"/>
	<path class="st1" d="M176.8,154.5c0,0.1-13,0.2-29.1,0.2s-29.1-0.1-29.1-0.2s13-0.2,29.1-0.2S176.8,154.4,176.8,154.5z"/>
	<path class="st1" d="M153,160.7c-0.4,0.1-0.9,0.1-1.4,0.1l-3.7,0.1c-3.1,0-7.4,0.1-12.1,0.1s-9,0-12.2-0.1l-3.7-0.1
		c-0.5,0-0.9,0-1.3-0.1c0.4-0.1,0.9-0.1,1.3-0.1l3.7-0.1c3.1-0.1,7.4-0.1,12.2-0.1s9,0,12.1,0.1l3.7,0.1
		C152.1,160.6,152.6,160.6,153,160.7z"/>
	<rect x="81.6" y="177.3" class="st1" width="15.7" height="15.7"/>
	<rect x="110.1" y="177.3" class="st1" width="15.7" height="15.7"/>
	<rect x="138.5" y="177.3" class="st1" width="15.7" height="15.7"/>
	<rect x="167" y="177.3" class="st1" width="15.7" height="15.7"/>
	<path class="st3" d="M428.1,143.7c-0.8,1-1.7,2-2.7,2.8l0.7,3.5l-5.4,2.4l-2.1-2.9c-1.3,0.2-2.6,0.2-3.9,0.1l-2,3l-5.5-2.1l0.5-3.5
		c-1-0.8-2-1.6-2.8-2.7l-3.5,0.7l-2.4-5.4l2.9-2.1c-0.2-1.3-0.2-2.6-0.1-3.9l-3-2l2.2-5.6l3.5,0.5c0.8-1,1.7-2,2.7-2.8l-0.7-3.5
		l5.4-2.4l2.1,2.9c1.3-0.2,2.6-0.2,3.9-0.1l2-3l5.5,2.1l-0.5,3.5c1,0.8,2,1.7,2.8,2.7l3.5-0.7l2.4,5.4l-2.9,2.1
		c0.2,1.3,0.2,2.6,0.1,3.9l3,2l-2.1,5.5L428.1,143.7L428.1,143.7z M422.1,137.7c1.3-3.3-0.4-6.9-3.7-8.2c-3.3-1.3-6.9,0.4-8.2,3.7
		c-1.2,3.3,0.4,6.9,3.6,8.2C417.1,142.6,420.8,141,422.1,137.7C422.1,137.7,422.1,137.7,422.1,137.7L422.1,137.7z"/>
	<path class="st1" d="M422.1,137.6c-0.1,0.5-0.4,1-0.7,1.4c-1.4,2.1-3.9,3.1-6.4,2.7c-1.1-0.2-2.2-0.7-3.1-1.5
		c-0.5-0.4-0.9-0.9-1.2-1.4c-0.4-0.6-0.6-1.2-0.8-1.8c-0.4-1.3-0.3-2.8,0.2-4.1c0.5-1.3,1.4-2.4,2.6-3.1c0.6-0.4,1.2-0.6,1.8-0.8
		c0.6-0.2,1.2-0.2,1.9-0.2c2.2,0.1,4.2,1.3,5.4,3.2c0.8,1.2,1.1,2.7,0.9,4.2C422.5,136.7,422.3,137.2,422.1,137.6
		c0,0,0.2-0.5,0.3-1.5c0.1-1.4-0.2-2.8-0.9-4c-1.1-1.8-3.1-2.9-5.2-2.9c-0.6,0-1.2,0.1-1.8,0.2c-3.3,0.9-5.2,4.3-4.3,7.6
		c0.2,0.6,0.4,1.2,0.8,1.7c0.3,0.5,0.7,1,1.1,1.4c1.6,1.4,3.8,1.9,5.8,1.3c1.4-0.4,2.6-1.2,3.4-2.4
		C421.6,138.6,421.9,138.1,422.1,137.6z"/>
	<path class="st1" d="M428.1,143.7h0.2l0.7,0.1l2.6,0.4h-0.1c0.5-1.4,1.2-3.3,2.1-5.5v0.1l-3-2h-0.1v-0.1c0.1-1.3,0.1-2.6-0.1-3.8
		v-0.1h0.1l2.9-2.1v0.2l-2.4-5.4l0.1,0.1l-3.5,0.7h-0.1l-0.1-0.1c-0.8-1-1.7-1.9-2.8-2.6l-0.1-0.1v-0.1c0.2-1.1,0.3-2.3,0.5-3.5
		l0.1,0.2l-5.5-2.1l0.2-0.1l-2,3l-0.1,0.1h-0.1c-1.3-0.1-2.5-0.1-3.8,0.1h-0.1l-0.1-0.1l-2.1-2.9h0.2l-5.4,2.4l0.1-0.2
		c0.2,1.1,0.5,2.3,0.7,3.5v0.1l-0.1,0.1c-1,0.8-1.9,1.7-2.6,2.8l0,0l-0.2,0.1h-0.1h-0.1h-0.2l-0.5-0.1l-0.9-0.1l-1.8-0.2l0.2-0.1
		l-2,5.5l-0.1-0.2l3,2l0.1,0.1v0.1c-0.1,1.3-0.1,2.5,0.1,3.8v0.1l-0.1,0.1l-2.9,2.1l0.1-0.2c0.8,1.9,1.6,3.7,2.4,5.4l-0.2-0.1
		l3.5-0.7h0.1l0.1,0.1c0.8,1,1.7,1.9,2.8,2.6l0.1,0.1v0.1c-0.2,1.2-0.4,2.4-0.5,3.5l-0.1-0.2l5.5,2.1l-0.2,0.1l2-3v-0.1h0.1
		c1.3,0.1,2.6,0.1,3.8-0.1h0.1v0.1l2.1,2.9h-0.1l5.4-2.4v0.1c-0.3-1.4-0.5-2.6-0.7-3.5l0,0l0,0c0.8-0.6,1.5-1.3,2.1-2l0.5-0.6
		L428.1,143.7l-0.1,0.3c-0.1,0.1-0.2,0.3-0.4,0.6c-0.6,0.8-1.3,1.5-2,2.1v-0.1c0.2,1,0.4,2.1,0.7,3.5V150h-0.1l-5.4,2.4h-0.1
		l-0.1-0.1l-2.1-2.9l0.1,0.1c-1.3,0.2-2.6,0.2-3.9,0.1l0.1-0.1l-2,3l-0.1,0.1h-0.1l-5.5-2.1H407v-0.1c0.2-1.1,0.3-2.3,0.5-3.5
		l0.1,0.1c-1.1-0.8-2-1.7-2.8-2.7l0.2,0.1l-3.5,0.7h-0.1l-0.1-0.1l-2.4-5.4l-0.1-0.1l0.1-0.1l2.9-2.1l-0.1,0.2
		c-0.2-1.3-0.2-2.6-0.1-3.9l0.1,0.2l-3-2l-0.1-0.1v-0.1l2.1-5.5l0-0.1h0.1l1.8,0.2l0.9,0.1l0.5,0.1h0.2h0.1h0.1
		c-0.4,0.2-0.1,0-0.2,0.1l0,0c0.8-1,1.7-2,2.8-2.8l-0.1,0.2c-0.2-1.2-0.5-2.4-0.7-3.5v-0.2l0.1-0.1l5.4-2.4l0.1-0.1l0.1,0.1
		c0.7,1,1.5,2,2.1,2.9l-0.2-0.1c1.3-0.2,2.6-0.2,3.9-0.1l-0.2,0.1l2-3l0.1-0.1h0.1l5.5,2.1h0.1v0.1c-0.2,1.2-0.4,2.4-0.5,3.5
		l-0.1-0.2c1.1,0.8,2,1.7,2.8,2.7l-0.1-0.1l3.5-0.7h0.1l0,0.1c0.8,1.9,1.6,3.7,2.4,5.4v0.1l-0.1,0.1l-2.9,2.1l0-0.1
		c0.2,1.3,0.2,2.6,0.1,3.9l0-0.1l3,2h0.1v0.1l-2.2,5.5v0.1l0,0l-2.6-0.4l-0.7-0.1L428.1,143.7z"/>
	<path class="st4" d="M459.6,126.8c-0.6,0.9-1.4,1.7-2.2,2.3l0.6,2.9l-4.5,2l-1.8-2.4c-1.1,0.2-2.1,0.2-3.2,0.1l-1.6,2.5l-4.6-1.8
		l0.4-2.9c-0.9-0.6-1.7-1.4-2.3-2.2l-2.9,0.6l-2-4.5l2.4-1.8c-0.2-1.1-0.2-2.1-0.1-3.2l-2.5-1.7l1.8-4.6l2.9,0.4
		c0.6-0.9,1.4-1.7,2.2-2.3l-0.6-2.9l4.5-2l1.8,2.4c1.1-0.2,2.1-0.2,3.2-0.1l1.6-2.5l4.6,1.8l-0.4,2.9c0.9,0.6,1.6,1.4,2.3,2.2
		l2.9-0.6l2,4.5l-2.4,1.8c0.2,1.1,0.2,2.1,0.1,3.2l2.5,1.7l-1.8,4.6L459.6,126.8L459.6,126.8z M454.6,121.8c1.1-2.7-0.3-5.8-3-6.8
		c-2.7-1.1-5.8,0.3-6.8,3c-1.1,2.7,0.3,5.8,3,6.8c0,0,0,0,0,0C450.5,125.9,453.5,124.6,454.6,121.8
		C454.6,121.9,454.6,121.8,454.6,121.8L454.6,121.8z"/>
	<path class="st4" d="M440.2,99.5c-1,1.4-2.2,2.6-3.5,3.6l0.9,4.6l-7,3.1l-2.8-3.7c-1.7,0.3-3.3,0.3-5,0.1l-2.6,3.9l-7.2-2.8
		l0.7-4.6c-1.4-1-2.6-2.2-3.6-3.5l-4.6,0.9l-3.1-7l3.7-2.8c-0.3-1.7-0.3-3.3-0.1-5l-3.9-2.6l2.8-7.2l4.6,0.7c1-1.4,2.1-2.6,3.4-3.7
		l-0.9-4.6l7-3.1l2.8,3.7c1.7-0.3,3.3-0.3,5-0.1l2.6-3.9l7.2,2.8L436,73c1.4,1,2.6,2.2,3.6,3.5l4.6-0.9l3.1,7l-3.7,2.8
		c0.3,1.7,0.3,3.3,0.1,5l3.9,2.7l-2.8,7.2L440.2,99.5L440.2,99.5z M432.4,91.6c1.6-4.3-0.5-9-4.7-10.7s-9,0.5-10.7,4.7
		c-1.6,4.3,0.5,9,4.7,10.7c0,0,0,0,0,0C426,98,430.8,95.9,432.4,91.6C432.4,91.6,432.4,91.6,432.4,91.6z"/>
	<path class="st1" d="M369.6,61.4c0.2-0.2,0.3-0.4,0.5-0.6l1.5-1.5c1.3-1.3,3.1-3,5.1-4.9h0v0.2c-2-1.9-3.8-3.6-5.1-4.8l-1.5-1.5
		c-0.2-0.2-0.4-0.4-0.5-0.6c0.2,0.1,0.4,0.3,0.6,0.5l1.6,1.4c1.3,1.2,3.2,2.9,5.2,4.8l0.1,0.1l-0.1,0.1l0,0c-2,1.9-3.8,3.6-5.2,4.9
		l-1.6,1.5C370.1,61.1,369.8,61.2,369.6,61.4z"/>
	<path class="st1" d="M354,47.6c-0.2,0.2-0.3,0.4-0.5,0.6l-1.5,1.5c-1.3,1.3-3.1,3-5.1,4.9l0,0v-0.3c2,1.9,3.8,3.6,5.1,4.8l1.5,1.5
		c0.2,0.2,0.4,0.4,0.5,0.6c-0.2-0.1-0.4-0.3-0.6-0.5c-0.4-0.4-1-0.9-1.6-1.4c-1.3-1.2-3.2-2.9-5.2-4.8l-0.1-0.1l0.1-0.1h0
		c2-1.9,3.8-3.6,5.2-4.9l1.6-1.4C353.6,47.9,353.8,47.7,354,47.6z"/>
	<path class="st1" d="M358,64.6c-0.1,0,1.5-4.6,3.7-10.3s3.9-10.2,4-10.2s-1.5,4.6-3.7,10.3S358.1,64.6,358,64.6z"/>
	<path class="st1" d="M387.4,74.5c0,0,0-0.3,0-0.8s0-1.3,0-2.2c0-1.9,0-4.8,0-8.4c0-7.2,0-17.5-0.1-30l0.1,0.2h-50.8l0,0l0.2-0.2
		c0,15,0,29.1,0,41.4l-0.2-0.2l36.7,0.1h10.4h2.8h-2.7l-10.4,0.1l-36.8,0.1h-0.2v-0.2c0-12.3,0-26.4,0-41.4v-0.2h0.2h50.8h0.1v0.2
		c0,12.5-0.1,22.8-0.1,30.1c0,3.6,0,6.4,0,8.4c0,1,0,1.7,0,2.2S387.4,74.5,387.4,74.5z"/>
	<path class="st1" d="M387.8,39.2c0,0.1-11.5,0.2-25.6,0.2s-25.6-0.1-25.6-0.2S348,39,362.2,39S387.8,39.1,387.8,39.2z"/>
	<path class="st1" d="M340.7,36.2c0,0.4-0.3,0.7-0.7,0.7l0,0c-0.4,0-0.7-0.3-0.7-0.7c0-0.4,0.3-0.7,0.7-0.7S340.7,35.8,340.7,36.2
		L340.7,36.2z"/>
	<circle class="st1" cx="342.5" cy="36.2" r="0.7"/>
	<path class="st1" d="M345.7,36.2c0,0.4-0.3,0.7-0.7,0.7s-0.7-0.3-0.7-0.7s0.3-0.7,0.7-0.7S345.7,35.8,345.7,36.2L345.7,36.2z"/>
	<rect x="171.8" y="53" class="st0" width="117.4" height="47.7"/>
	<path class="st1" d="M289.2,100.7c0,0,0-0.3,0-0.8s0-1.4,0-2.5c0-2.2,0-5.4,0-9.5c0-8.2,0-20.1-0.1-34.9l0.1,0.1l-117.4,0.1l0,0
		L172,53v47.7l-0.2-0.2l84.2,0.1l24.4,0.1h6.5l0,0h-6.5h-24.4l-84.3,0.1h-0.2v-0.2c0-14.9,0-31,0-47.7v-0.2h0.2h117.4h0.1V53
		c0,14.8,0,26.7-0.1,34.9c0,4.1,0,7.3,0,9.5c0,1.1,0,1.9,0,2.4S289.2,100.7,289.2,100.7z"/>
	<path class="st1" d="M172,59.5c0-0.1,26.2-0.2,58.6-0.2s58.6,0.1,58.6,0.2s-26.2,0.2-58.6,0.2S172,59.6,172,59.5z"/>
	<g class="st2">
		<path class="st5" d="M176.9,56.6c0,0.5-0.4,0.8-0.9,0.8l0,0c-0.5,0-0.9-0.4-0.9-0.8c0-0.5,0.4-0.9,0.9-0.9
			C176.5,55.7,176.9,56.1,176.9,56.6C176.9,56.6,176.9,56.6,176.9,56.6z"/>
	</g>
	<g class="st2">
		<path class="st5" d="M179.8,56.6c0,0.5-0.4,0.8-0.9,0.8l0,0c-0.5,0-0.9-0.4-0.9-0.8c0-0.5,0.4-0.9,0.9-0.9
			C179.4,55.7,179.8,56.1,179.8,56.6C179.8,56.6,179.8,56.6,179.8,56.6z"/>
	</g>
	<g class="st2">
		<circle class="st5" cx="181.8" cy="56.6" r="0.9"/>
	</g>
	<rect x="181.8" y="67.2" class="st1" width="28.4" height="28.3"/>
	<path class="st1" d="M281.1,74.8c0,0.1-14.6,0.2-32.6,0.2s-32.6-0.1-32.6-0.2s14.6-0.2,32.6-0.2S281.1,74.7,281.1,74.8z"/>
	<path class="st1" d="M281.1,80.6c0,0.1-14.6,0.2-32.6,0.2s-32.6-0.1-32.6-0.2s14.6-0.2,32.6-0.2S281.1,80.5,281.1,80.6z"/>
	<path class="st1" d="M257.9,86.4c-0.1,0-0.3,0-0.4,0h-1.2l-4.5,0.1l-14.8,0.1l-14.8-0.1l-4.5-0.1h-1.2c-0.1,0-0.3,0-0.4,0
		c0.1,0,0.3,0,0.4,0h1.2l4.5-0.1h14.8h14.8l4.5,0.1h1.2C257.6,86.4,257.7,86.4,257.9,86.4z"/>
</g>
<g id="Floor--inject-106">
	<path class="st6" d="M472.9,445.1c0,0.1-99.8,0.3-222.9,0.3s-222.9-0.1-222.9-0.3s99.8-0.3,222.9-0.3S472.9,444.9,472.9,445.1z"/>
</g>
<g id="Screens--inject-106">
	<rect x="158.3" y="24.7" class="st7" width="59.2" height="42.2"/>
	<rect x="295" y="135.4" class="st1" width="140.1" height="114.2"/>
	<rect x="285.1" y="142.7" class="st5" width="140.1" height="114.2"/>
	<rect x="271.3" y="150.6" class="st0" width="143.9" height="117.2"/>
	<path class="st6" d="M415.2,267.8c0,0,0-0.8,0-2.2s0-3.5,0-6.3c0-5.5,0-13.5,0-23.8c0-20.5-0.1-49.7-0.1-85l0.2,0.2H271.4l0,0
		l0.3-0.3c0,42.4,0,82.4,0,117.2l-0.2-0.2l104,0.1l29.4,0.1h7.8h2h0.7h-2.6h-7.8l-29.4,0.1l-104.1,0.1h-0.2v-0.2
		c0-34.8,0-74.8,0-117.2v-0.3h0.3h143.9h0.2v0.2c0,35.4-0.1,64.7-0.1,85.2c0,10.2,0,18.2-0.1,23.7c0,2.7,0,4.8,0,6.2
		S415.2,267.8,415.2,267.8z"/>
	<path class="st7" d="M288.9,167.6l-1.5,0.6l1.5,0.6v0.6l-2.2-0.8v-0.6l2.2-0.8V167.6z"/>
	<path class="st7" d="M292.5,166.5v3.2h-0.8v-1.3h-1.5v1.3h-0.8v-3.2h0.8v1.3h1.5v-1.3H292.5z"/>
	<path class="st7" d="M294,167.1h-1v-0.6h2.8v0.6h-1v2.6H294V167.1z"/>
	<path class="st7" d="M299.1,169.7v-2l-1,1.6h-0.3l-1-1.6v1.9h-0.7v-3.2h0.6l1.2,2l1.2-2h0.6v3.2L299.1,169.7z"/>
	<path class="st7" d="M300.6,166.5h0.8v2.6h1.7v0.6h-2.4L300.6,166.5z"/>
	<path class="st7" d="M305.5,167.8v0.6l-2.2,0.8v-0.6l1.5-0.6l-1.5-0.6V167L305.5,167.8z"/>
	<path class="st7" d="M287.6,256.4L286,257l1.5,0.6v0.6l-2.2-0.8v-0.6l2.2-0.8L287.6,256.4z"/>
	<path class="st7" d="M289.2,254.7h0.6l-1.5,4.4h-0.6L289.2,254.7z"/>
	<path class="st7" d="M293,255.4v3.2h-0.8v-1.3h-1.4v1.3H290v-3.2h0.8v1.3h1.5v-1.3H293z"/>
	<path class="st7" d="M294.5,256h-1v-0.6h2.8v0.6h-1v2.6h-0.8L294.5,256z"/>
	<path class="st7" d="M299.6,258.6v-2l-1,1.6h-0.3l-1-1.6v1.9h-0.7v-3.2h0.6l1.2,2l1.2-2h0.6v3.2L299.6,258.6z"/>
	<path class="st7" d="M301.1,255.4h0.8v2.6h1.6v0.6h-2.4V255.4z"/>
	<path class="st7" d="M306,256.7v0.6l-2.2,0.8v-0.6l1.5-0.6l-1.5-0.6v-0.6L306,256.7z"/>
	<path d="M299.1,176.4l-1.6,0.6l1.6,0.6v0.4l-2.1-0.8v-0.4l2.1-0.8V176.4z"/>
	<path d="M302.6,175.4v3.2h-0.5v-1.4h-1.9v1.4h-0.5v-3.2h0.5v1.4h1.9v-1.4H302.6z"/>
	<path d="M306,178.3v0.4h-2.4v-3.2h2.3v0.4h-1.8v1h1.6v0.4h-1.6v1L306,178.3z"/>
	<path d="M308.8,177.9h-1.7l-0.4,0.8h-0.5l1.5-3.2h0.5l1.5,3.2h-0.5L308.8,177.9z M308.6,177.5l-0.7-1.6l-0.7,1.6H308.6z"/>
	<path d="M310.1,175.4h1.4c0.9-0.1,1.7,0.6,1.8,1.5c0.1,0.9-0.6,1.7-1.5,1.8c-0.1,0-0.2,0-0.3,0h-1.4V175.4z M311.5,178.3
		c0.7,0,1.2-0.5,1.2-1.2s-0.5-1.2-1.2-1.2l0,0h-0.9v2.4H311.5z"/>
	<path d="M315.9,176.9v0.4l-2.1,0.8v-0.4l1.6-0.6l-1.6-0.6V176L315.9,176.9z"/>
	<path d="M299.1,187.6l-1.6,0.6l1.6,0.6v0.4l-2.1-0.8V188l2.1-0.8V187.6z"/>
	<path d="M300.5,187h-1.1v-0.4h2.7v0.4H301v2.9h-0.5L300.5,187z"/>
	<path d="M302.6,186.6h0.5v3.2h-0.5V186.6z"/>
	<path d="M304.7,187h-1.1v-0.4h2.7v0.4h-1.1v2.9h-0.5L304.7,187z"/>
	<path d="M306.7,186.6h0.5v2.8h1.8v0.4h-2.2L306.7,186.6z"/>
	<path d="M311.9,189.4v0.4h-2.4v-3.2h2.3v0.4H310v1h1.6v0.4H310v1L311.9,189.4z"/>
	<path d="M314.5,188v0.4l-2.1,0.8v-0.4l1.6-0.6l-1.6-0.6v-0.4L314.5,188z"/>
	<path d="M316.5,186.6h0.5v2.8h1.8v0.4h-2.2V186.6z"/>
	<path d="M319,188.6c0-0.7,0.6-1.3,1.3-1.3c0.7,0,1.3,0.6,1.3,1.3s-0.6,1.3-1.3,1.3c0,0,0,0,0,0c-0.7,0-1.2-0.5-1.3-1.2
		C319,188.7,319,188.6,319,188.6z M321.1,188.6c0.1-0.5-0.3-0.9-0.7-0.9c-0.5-0.1-0.9,0.3-0.9,0.7c0,0.1,0,0.1,0,0.2
		c-0.1,0.5,0.3,0.9,0.7,0.9c0.5,0.1,0.9-0.3,0.9-0.7C321.1,188.7,321.1,188.7,321.1,188.6z"/>
	<path d="M323.5,187.3v0.4h-0.1c-0.4,0-0.8,0.3-0.8,0.7c0,0,0,0.1,0,0.1v1.2h-0.4v-2.5h0.4v0.4C322.8,187.5,323.1,187.3,323.5,187.3
		z"/>
	<path d="M326.2,188.7h-2c0.1,0.4,0.4,0.8,0.9,0.7c0.3,0,0.5-0.1,0.7-0.3l0.2,0.3c-0.5,0.5-1.4,0.5-1.9,0c-0.2-0.2-0.4-0.5-0.4-0.9
		c0-0.7,0.5-1.2,1.2-1.2c0,0,0,0,0.1,0c0.7,0,1.2,0.5,1.2,1.1c0,0,0,0.1,0,0.1C326.2,188.6,326.2,188.7,326.2,188.7z M324.2,188.4
		h1.6c0-0.4-0.4-0.8-0.8-0.8C324.5,187.6,324.2,188,324.2,188.4z"/>
	<path d="M330.9,188.4v1.4h-0.5v-1.4c0-0.5-0.2-0.7-0.6-0.7c-0.4,0-0.7,0.3-0.7,0.7c0,0,0,0.1,0,0.1v1.3h-0.5v-1.4
		c0-0.5-0.2-0.7-0.6-0.7c-0.4,0-0.7,0.3-0.7,0.7c0,0,0,0.1,0,0.1v1.3h-0.4v-2.5h0.4v0.4c0.2-0.3,0.5-0.4,0.9-0.4
		c0.3,0,0.7,0.1,0.9,0.4c0.2-0.3,0.6-0.5,0.9-0.4c0.5,0,1,0.3,1,0.9C330.9,188.3,330.9,188.3,330.9,188.4z"/>
	<path d="M332.9,186.6c0-0.2,0.1-0.3,0.3-0.3c0,0,0,0,0,0c0.2,0,0.3,0.1,0.3,0.3c0,0,0,0,0,0c0,0.2-0.1,0.3-0.3,0.3c0,0,0,0,0,0
		C333,186.9,332.9,186.8,332.9,186.6C332.9,186.6,332.9,186.6,332.9,186.6z M333,187.4h0.5v2.5H333L333,187.4z"/>
	<path d="M336.8,188.6c0,0.7-0.5,1.2-1.1,1.3c0,0-0.1,0-0.1,0c-0.3,0-0.7-0.1-0.9-0.4v1.3h-0.5v-3.4h0.4v0.4
		c0.2-0.3,0.5-0.4,0.9-0.4c0.7,0,1.2,0.5,1.2,1.1C336.8,188.5,336.8,188.6,336.8,188.6z M336.3,188.6c0-0.5-0.4-0.8-0.8-0.8
		c-0.5,0-0.8,0.4-0.8,0.8s0.4,0.8,0.8,0.8C336,189.4,336.3,189,336.3,188.6z"/>
	<path d="M337.1,189.6l0.2-0.4c0.3,0.2,0.6,0.2,0.9,0.2c0.4,0,0.6-0.1,0.6-0.3c0-0.6-1.6-0.1-1.6-1.1c0-0.4,0.4-0.7,1-0.7
		c0.3,0,0.6,0.1,0.9,0.2l-0.2,0.4c-0.2-0.1-0.5-0.2-0.7-0.2c-0.4,0-0.6,0.1-0.6,0.3c0,0.6,1.6,0.1,1.6,1.1c0,0.4-0.4,0.7-1.1,0.7
		C337.7,189.9,337.4,189.8,337.1,189.6z"/>
	<path d="M342,187.4v2.5h-0.4v-0.4c-0.2,0.3-0.5,0.4-0.8,0.4c-0.6,0-1-0.4-1.1-0.9c0,0,0-0.1,0-0.1v-1.4h0.5v1.4
		c0,0.5,0.2,0.7,0.7,0.7c0.4,0,0.7-0.3,0.8-0.7c0,0,0-0.1,0-0.1v-1.3L342,187.4z"/>
	<path d="M347,188.4v1.4h-0.4v-1.4c0-0.5-0.2-0.7-0.6-0.7c-0.4,0-0.7,0.3-0.7,0.7c0,0,0,0.1,0,0.1v1.3h-0.5v-1.4
		c0-0.5-0.2-0.7-0.6-0.7c-0.4,0-0.7,0.3-0.7,0.7c0,0,0,0.1,0,0.1v1.3h-0.5v-2.5h0.4v0.4c0.2-0.3,0.5-0.4,0.9-0.4
		c0.3,0,0.7,0.1,0.9,0.4c0.2-0.3,0.6-0.5,1-0.4c0.5,0,1,0.3,1,0.8C347,188.3,347,188.3,347,188.4z"/>
	<path d="M351,187.6l-1.6,0.6l1.6,0.6v0.4l-2.1-0.8V188l2.1-0.8V187.6z"/>
	<path d="M352.7,185.9h0.4l-1.5,4.4h-0.4L352.7,185.9z"/>
	<path d="M354.2,187h-1.1v-0.4h2.7v0.4h-1.1v2.9h-0.5L354.2,187z"/>
	<path d="M356.3,186.6h0.5v3.2h-0.5V186.6z"/>
	<path d="M358.4,187h-1.1v-0.4h2.7v0.4h-1.1v2.9h-0.5L358.4,187z"/>
	<path d="M360.4,186.6h0.5v2.8h1.8v0.4h-2.2V186.6z"/>
	<path d="M365.5,189.4v0.4h-2.4v-3.2h2.3v0.4h-1.8v1h1.6v0.4h-1.6v1L365.5,189.4z"/>
	<path d="M368.2,188v0.4l-2.1,0.8v-0.4l1.6-0.6l-1.6-0.6v-0.4L368.2,188z"/>
	<path d="M299.1,198.7l-1.6,0.6l1.6,0.6v0.4l-2.1-0.8v-0.4l2.1-0.8V198.7z"/>
	<path d="M300.8,197h0.4l-1.5,4.4h-0.4L300.8,197z"/>
	<path d="M304.3,197.7v3.2h-0.5v-1.4H302v1.4h-0.5v-3.2h0.5v1.4h1.9v-1.4H304.3z"/>
	<path d="M307.6,200.5v0.4h-2.4v-3.2h2.3v0.4h-1.8v1h1.6v0.4h-1.6v1L307.6,200.5z"/>
	<path d="M310.4,200.1h-1.7l-0.4,0.8h-0.5l1.5-3.2h0.5l1.5,3.2h-0.5L310.4,200.1z M310.3,199.8l-0.7-1.6l-0.7,1.6H310.3z"/>
	<path d="M311.8,197.7h1.4c0.9-0.1,1.7,0.6,1.8,1.5c0.1,0.9-0.6,1.7-1.5,1.8c-0.1,0-0.2,0-0.3,0h-1.4V197.7z M313.1,200.5
		c0.7,0.1,1.3-0.4,1.3-1.1s-0.4-1.3-1.1-1.3c-0.1,0-0.1,0-0.2,0h-0.9v2.4H313.1z"/>
	<path d="M317.5,199.1v0.4l-2.1,0.8V200l1.6-0.6l-1.6-0.6v-0.4L317.5,199.1z"/>
	<path d="M290.5,208.3l-1.6,0.6l1.6,0.6v0.4l-2.1-0.8v-0.4l2.1-0.8V208.3z"/>
	<path d="M294,209.7c0,0.6-0.4,0.9-1.2,0.9h-1.5v-3.2h1.5c0.8,0,1.2,0.3,1.2,0.8c-0.4,0.2-0.6,0.7-0.3,1.1
		C293.6,209.5,293.8,209.6,294,209.7L294,209.7z M291.7,207.7v1h1c0.5,0,0.7-0.2,0.7-0.5s-0.3-0.5-0.7-0.5L291.7,207.7z
		 M293.5,209.7c0-0.4-0.3-0.6-0.8-0.6h-1.1v1.1h1.1C293.3,210.2,293.6,210.1,293.5,209.7L293.5,209.7z"/>
	<path d="M294.5,209c0-1,0.7-1.8,1.7-1.8c1,0,1.8,0.7,1.8,1.7c0,1-0.7,1.8-1.7,1.8c0,0,0,0-0.1,0C295.3,210.7,294.5,210,294.5,209
		C294.5,209.1,294.5,209,294.5,209z M297.5,209c0-0.7-0.5-1.3-1.2-1.3s-1.3,0.5-1.3,1.2c0,0.7,0.5,1.3,1.2,1.3c0,0,0,0,0,0
		C296.9,210.3,297.5,209.7,297.5,209C297.5,209,297.5,209,297.5,209L297.5,209z"/>
	<path d="M298.6,207.3h1.4c0.9-0.1,1.7,0.6,1.8,1.5c0.1,0.9-0.6,1.7-1.5,1.8c-0.1,0-0.2,0-0.3,0h-1.4L298.6,207.3z M300,210.2
		c0.7,0,1.2-0.5,1.2-1.2s-0.5-1.2-1.2-1.2h-0.9v2.4H300z"/>
	<path d="M303.6,209.5v1.1h-0.5v-1.1l-1.3-2.1h0.5l1,1.7l1-1.7h0.5L303.6,209.5z"/>
	<path d="M307.2,208.8v0.4l-2.1,0.8v-0.4l1.6-0.6l-1.6-0.6V208L307.2,208.8z"/>
	<path d="M290.5,219.4l-1.6,0.6l1.6,0.6v0.4l-2.1-0.8v-0.4l2.1-0.8V219.4z"/>
	<path d="M294,218.5v3.2h-0.5v-1.4h-1.9v1.4h-0.5v-3.2h0.5v1.4h1.9v-1.4H294z"/>
	<path d="M295.8,218.5v3.2h-0.5v-2.8h-0.7v-0.4L295.8,218.5z"/>
	<path d="M298.6,219.9v0.4l-2.1,0.8v-0.4l1.6-0.6l-1.6-0.6v-0.4L298.6,219.9z"/>
	<path d="M300.7,218.5h0.3v2.9h1.8v0.3h-2.2V218.5z"/>
	<path d="M303.1,220.5c0-0.7,0.6-1.2,1.2-1.2s1.2,0.6,1.2,1.2c0,0.7-0.6,1.2-1.2,1.2C303.7,221.8,303.1,221.2,303.1,220.5
		C303.1,220.6,303.1,220.5,303.1,220.5z M305.2,220.5c0-0.5-0.4-0.9-0.9-0.9c-0.5,0-0.9,0.4-0.9,0.9c0,0.5,0.4,0.9,0.9,0.9
		C304.8,221.4,305.2,221.1,305.2,220.5C305.2,220.5,305.2,220.5,305.2,220.5z"/>
	<path d="M307.5,219.2v0.3h-0.1c-0.4,0-0.8,0.3-0.8,0.8c0,0,0,0.1,0,0.1v1.2h-0.3v-2.4h0.3v0.5C306.7,219.4,307.1,219.2,307.5,219.2
		z"/>
	<path d="M310.2,220.6h-2c0,0.5,0.5,0.9,1,0.9c0,0,0,0,0,0c0.3,0,0.6-0.1,0.8-0.3l0.2,0.2c-0.2,0.3-0.6,0.4-0.9,0.4
		c-0.7,0-1.2-0.5-1.3-1.1c0,0,0-0.1,0-0.1c0-0.7,0.5-1.2,1.1-1.2c0,0,0,0,0.1,0c0.6,0,1.2,0.5,1.2,1.1c0,0,0,0.1,0,0.1L310.2,220.6z
		 M308.2,220.3h1.7c-0.1-0.5-0.5-0.8-1-0.8C308.5,219.6,308.2,219.9,308.2,220.3z"/>
	<path d="M314.9,220.3v1.4h-0.3v-1.4c0-0.5-0.3-0.8-0.7-0.8c-0.4,0-0.8,0.3-0.8,0.7c0,0,0,0.1,0,0.1v1.3h-0.3v-1.4
		c0-0.5-0.3-0.8-0.7-0.8c-0.4,0-0.8,0.3-0.8,0.8c0,0,0,0.1,0,0.1v1.3h-0.3v-2.4h0.3v0.4c0.2-0.3,0.5-0.5,0.9-0.5
		c0.4,0,0.7,0.2,0.9,0.5c0.2-0.3,0.6-0.6,1-0.5c0.5,0,0.9,0.4,1,0.9C314.9,220.2,314.9,220.3,314.9,220.3z"/>
	<path d="M316.9,218.5c0-0.1,0.1-0.2,0.2-0.2c0.1,0,0.2,0.1,0.2,0.2c0,0,0,0,0,0c0,0.1-0.1,0.2-0.2,0.2S316.9,218.6,316.9,218.5z
		 M317,219.3h0.3v2.4H317L317,219.3z"/>
	<path d="M320.7,220.5c0,0.7-0.5,1.2-1.1,1.2c0,0-0.1,0-0.1,0c-0.4,0-0.7-0.2-0.9-0.5v1.4h-0.3v-3.3h0.3v0.5
		c0.2-0.3,0.6-0.5,0.9-0.5C320.1,219.2,320.7,219.7,320.7,220.5C320.7,220.4,320.7,220.5,320.7,220.5z M320.4,220.5
		c0-0.5-0.4-0.9-0.9-0.9s-0.9,0.4-0.9,0.9s0.4,0.9,0.9,0.9S320.4,221,320.4,220.5L320.4,220.5z"/>
	<path d="M321,221.4l0.1-0.3c0.3,0.2,0.6,0.3,0.9,0.3c0.5,0,0.6-0.2,0.6-0.4c0-0.6-1.6-0.1-1.6-1.1c0-0.4,0.4-0.7,1-0.7
		c0.3,0,0.6,0.1,0.9,0.2l-0.1,0.3c-0.2-0.1-0.5-0.2-0.7-0.2c-0.4,0-0.6,0.2-0.6,0.4c0,0.7,1.6,0.2,1.6,1.1c0,0.4-0.4,0.7-1,0.7
		C321.7,221.8,321.3,221.6,321,221.4z"/>
	<path d="M325.8,219.3v2.4h-0.3v-0.4c-0.2,0.3-0.5,0.5-0.9,0.5c-0.5,0-1-0.4-1-0.9c0-0.1,0-0.1,0-0.2v-1.4h0.3v1.4
		c0,0.5,0.3,0.8,0.7,0.8c0.4,0,0.8-0.3,0.8-0.7c0,0,0-0.1,0-0.1v-1.3H325.8z"/>
	<path d="M330.8,220.3v1.4h-0.3v-1.4c0-0.5-0.3-0.8-0.7-0.8c-0.4,0-0.8,0.3-0.8,0.7c0,0,0,0.1,0,0.1v1.3h-0.3v-1.4
		c0-0.5-0.3-0.8-0.7-0.8c-0.4,0-0.8,0.3-0.8,0.8c0,0,0,0.1,0,0.1v1.3h-0.3v-2.4h0.3v0.4c0.2-0.3,0.5-0.5,0.9-0.5
		c0.4,0,0.7,0.2,0.9,0.5c0.2-0.4,0.6-0.6,1-0.5c0.5,0,0.9,0.4,0.9,0.9C330.8,220.2,330.8,220.3,330.8,220.3z"/>
	<path d="M335.1,218.3v3.4h-0.3v-0.5c-0.2,0.3-0.6,0.5-0.9,0.5c-0.7-0.1-1.2-0.7-1.1-1.4c0.1-0.6,0.5-1.1,1.1-1.1
		c0.4,0,0.7,0.2,0.9,0.5v-1.5H335.1z M334.8,220.5c0-0.5-0.4-0.9-0.9-0.9c-0.5,0-0.9,0.4-0.9,0.9c0,0.5,0.4,0.9,0.9,0.9
		C334.4,221.4,334.8,221.1,334.8,220.5C334.8,220.5,334.8,220.5,334.8,220.5z"/>
	<path d="M335.8,220.5c0-0.7,0.6-1.2,1.2-1.2s1.2,0.6,1.2,1.2s-0.6,1.2-1.2,1.2C336.3,221.8,335.8,221.2,335.8,220.5
		C335.8,220.5,335.8,220.5,335.8,220.5z M337.9,220.5c0-0.5-0.4-0.9-0.9-0.9c-0.5,0-0.9,0.4-0.9,0.9c0,0.5,0.4,0.9,0.9,0.9
		C337.5,221.4,337.9,221.1,337.9,220.5C337.9,220.5,337.9,220.5,337.9,220.5z"/>
	<path d="M338.9,218.3h0.3v3.4h-0.3V218.3z"/>
	<path d="M339.9,220.5c0-0.7,0.6-1.2,1.2-1.2s1.2,0.6,1.2,1.2c0,0.7-0.6,1.2-1.2,1.2C340.5,221.8,339.9,221.2,339.9,220.5
		C339.9,220.6,339.9,220.5,339.9,220.5z M342.1,220.5c0-0.5-0.4-0.9-0.9-0.9c-0.5,0-0.9,0.4-0.9,0.9c0,0.5,0.4,0.9,0.9,0.9
		C341.7,221.4,342.1,221.1,342.1,220.5C342.1,220.5,342.1,220.5,342.1,220.5L342.1,220.5z"/>
	<path d="M344.3,219.2v0.3h-0.1c-0.4,0-0.8,0.3-0.8,0.8c0,0,0,0.1,0,0.1v1.2h-0.3v-2.4h0.3v0.5C343.6,219.4,343.9,219.2,344.3,219.2
		z"/>
	<path d="M345.8,221.4l0.1-0.3c0.3,0.2,0.6,0.3,0.9,0.3c0.5,0,0.6-0.2,0.6-0.4c0-0.6-1.6-0.1-1.6-1.1c0-0.4,0.3-0.7,1-0.7
		c0.3,0,0.6,0.1,0.9,0.2l-0.1,0.3c-0.2-0.1-0.5-0.2-0.7-0.2c-0.4,0-0.6,0.2-0.6,0.4c0,0.7,1.6,0.2,1.6,1.1c0,0.4-0.4,0.7-1,0.7
		C346.5,221.8,346.1,221.7,345.8,221.4z"/>
	<path d="M348.3,218.5c0-0.1,0.1-0.2,0.2-0.2c0.1,0,0.2,0.1,0.2,0.2c0,0,0,0,0,0c0,0.1-0.1,0.2-0.2,0.2S348.3,218.6,348.3,218.5z
		 M348.4,219.3h0.3v2.4h-0.3V219.3z"/>
	<path d="M350.9,221.6c-0.1,0.1-0.3,0.2-0.5,0.2c-0.4,0-0.7-0.2-0.7-0.6c0,0,0-0.1,0-0.1v-1.5h-0.4v-0.3h0.4v-0.5h0.3v0.5h0.7v0.3
		H350v1.5c0,0.2,0.1,0.4,0.3,0.4c0,0,0.1,0,0.1,0c0.1,0,0.3,0,0.4-0.1L350.9,221.6z"/>
	<path d="M354.6,220.2v1.5h-0.3v-0.4c-0.2,0.3-0.5,0.4-0.8,0.4c-0.5,0-0.9-0.3-0.9-0.7s0.2-0.7,0.9-0.7h0.8v-0.1
		c0-0.3-0.2-0.6-0.5-0.7c0,0-0.1,0-0.1,0c-0.3,0-0.6,0.1-0.8,0.3l-0.1-0.2c0.3-0.2,0.6-0.3,1-0.3c0.5-0.1,0.9,0.3,1,0.7
		C354.6,220.1,354.6,220.1,354.6,220.2z M354.3,221v-0.4h-0.8c-0.5,0-0.6,0.2-0.6,0.4s0.2,0.5,0.6,0.5
		C353.8,221.5,354.1,221.3,354.3,221L354.3,221z"/>
	<path d="M359.5,220.3v1.4h-0.3v-1.4c0-0.5-0.3-0.8-0.7-0.8c-0.4,0-0.8,0.3-0.8,0.8c0,0,0,0.1,0,0.1v1.3h-0.3v-1.4
		c0-0.5-0.3-0.8-0.7-0.8c-0.4,0-0.8,0.3-0.8,0.8c0,0,0,0.1,0,0.1v1.3h-0.3v-2.4h0.3v0.4c0.2-0.3,0.5-0.5,0.9-0.5
		c0.4,0,0.7,0.2,0.9,0.5c0.2-0.4,0.6-0.6,1-0.5c0.5,0,0.9,0.4,1,0.9C359.5,220.2,359.5,220.3,359.5,220.3z"/>
	<path d="M362.5,220.6h-2c0,0.5,0.5,0.9,1,0.9c0,0,0,0,0,0c0.3,0,0.6-0.1,0.8-0.3l0.2,0.2c-0.2,0.3-0.6,0.4-0.9,0.4
		c-0.7,0-1.2-0.5-1.3-1.1c0,0,0-0.1,0-0.1c0-0.7,0.5-1.2,1.2-1.2s1.2,0.5,1.2,1.2C362.6,220.5,362.5,220.6,362.5,220.6z
		 M360.5,220.3h1.7c-0.1-0.5-0.5-0.8-1-0.8C360.9,219.6,360.6,219.9,360.5,220.3z"/>
	<path d="M364.5,221.6c-0.1,0.1-0.3,0.2-0.5,0.2c-0.4,0-0.7-0.2-0.7-0.6c0,0,0-0.1,0-0.1v-1.5h-0.4v-0.3h0.4v-0.5h0.3v0.5h0.7v0.3
		h-0.7v1.5c0,0.2,0.1,0.4,0.3,0.4c0,0,0.1,0,0.1,0c0.1,0,0.3,0,0.4-0.1L364.5,221.6z"/>
	<path d="M365.4,221.5c0,0.1,0,0.2-0.1,0.3l-0.2,0.6h-0.2l0.2-0.7c-0.1,0-0.2-0.1-0.2-0.2c0-0.1,0.1-0.2,0.2-0.2
		C365.3,221.2,365.4,221.3,365.4,221.5C365.4,221.5,365.4,221.5,365.4,221.5z"/>
	<path d="M367.1,220.5c0-0.7,0.5-1.2,1.2-1.2c0,0,0.1,0,0.1,0c0.4,0,0.8,0.2,1,0.5l-0.2,0.2c-0.2-0.2-0.4-0.4-0.7-0.4
		c-0.5,0.2-0.8,0.7-0.6,1.3c0.1,0.3,0.3,0.5,0.6,0.6c0.3,0,0.5-0.1,0.7-0.4l0.2,0.2c-0.2,0.3-0.6,0.5-1,0.5
		C367.7,221.8,367.1,221.2,367.1,220.5C367.1,220.6,367.1,220.5,367.1,220.5z"/>
	<path d="M369.6,220.5c0-0.7,0.6-1.2,1.2-1.2s1.2,0.6,1.2,1.2c0,0.7-0.6,1.2-1.2,1.2C370.2,221.8,369.7,221.2,369.6,220.5
		C369.6,220.5,369.6,220.5,369.6,220.5z M371.8,220.5c0.1-0.5-0.3-0.9-0.8-1c0,0-0.1,0-0.1,0c-0.5,0.2-0.8,0.7-0.6,1.3
		c0.1,0.3,0.3,0.5,0.6,0.6C371.4,221.4,371.8,221,371.8,220.5C371.8,220.5,371.8,220.5,371.8,220.5z"/>
	<path d="M375,220.3v1.4h-0.3v-1.4c0.1-0.4-0.2-0.7-0.6-0.8c-0.1,0-0.1,0-0.2,0c-0.4,0-0.8,0.3-0.9,0.7c0,0,0,0.1,0,0.1v1.3h-0.3
		v-2.4h0.3v0.4c0.2-0.3,0.6-0.5,0.9-0.5c0.5,0,1,0.4,1,0.9C375.1,220.2,375.1,220.2,375,220.3z"/>
	<path d="M375.6,221.4l0.1-0.3c0.3,0.2,0.6,0.3,0.9,0.3c0.5,0,0.6-0.2,0.6-0.4c0-0.6-1.6-0.1-1.6-1.1c0-0.4,0.3-0.7,1-0.7
		c0.3,0,0.6,0.1,0.9,0.2l-0.1,0.3c-0.2-0.1-0.5-0.2-0.7-0.2c-0.4,0-0.6,0.2-0.6,0.4c0,0.7,1.6,0.2,1.6,1.1c0,0.4-0.4,0.7-1,0.7
		C376.3,221.8,375.9,221.7,375.6,221.4z"/>
	<path d="M380.3,220.6h-2c0,0.5,0.5,0.9,1,0.9c0,0,0,0,0,0c0.3,0,0.6-0.1,0.8-0.3l0.2,0.2c-0.2,0.3-0.6,0.4-0.9,0.4
		c-0.7,0-1.2-0.5-1.3-1.1c0,0,0-0.1,0-0.1c0-0.7,0.5-1.2,1.1-1.2c0,0,0,0,0.1,0c0.6,0,1.2,0.5,1.2,1.1c0,0,0,0.1,0,0.1L380.3,220.6z
		 M378.3,220.3h1.7c-0.1-0.5-0.5-0.8-1-0.8C378.6,219.6,378.3,219.9,378.3,220.3L378.3,220.3z"/>
	<path d="M380.8,220.5c0-0.7,0.5-1.2,1.2-1.2c0,0,0.1,0,0.1,0c0.4,0,0.8,0.2,1,0.5l-0.2,0.2c-0.2-0.2-0.4-0.4-0.7-0.4
		c-0.5,0.2-0.8,0.7-0.6,1.3c0.1,0.3,0.3,0.5,0.6,0.6c0.3,0,0.5-0.1,0.7-0.4l0.2,0.2c-0.2,0.3-0.6,0.5-1,0.5
		C381.4,221.8,380.8,221.2,380.8,220.5C380.8,220.6,380.8,220.5,380.8,220.5z"/>
	<path d="M384.9,221.6c-0.1,0.1-0.3,0.2-0.5,0.2c-0.4,0-0.7-0.2-0.7-0.6c0,0,0-0.1,0-0.1v-1.5h-0.4v-0.3h0.4v-0.5h0.3v0.5h0.7v0.3
		H384v1.5c0,0.2,0.1,0.4,0.3,0.4c0,0,0.1,0,0.1,0c0.1,0,0.3,0,0.4-0.1L384.9,221.6z"/>
	<path d="M387.6,220.6h-2c0,0.5,0.5,0.9,1,0.9c0,0,0,0,0,0c0.3,0,0.6-0.1,0.8-0.3l0.2,0.2c-0.2,0.3-0.6,0.4-0.9,0.4
		c-0.7,0-1.2-0.5-1.3-1.1c0,0,0-0.1,0-0.1c0-0.7,0.5-1.2,1.2-1.2s1.2,0.5,1.2,1.2C387.6,220.5,387.6,220.6,387.6,220.6z
		 M385.6,220.3h1.7c-0.1-0.5-0.5-0.8-1-0.8C385.9,219.6,385.6,219.9,385.6,220.3z"/>
	<path d="M389.5,221.6c-0.1,0.1-0.3,0.2-0.5,0.2c-0.4,0-0.7-0.2-0.7-0.6c0,0,0-0.1,0-0.1v-1.5h-0.4v-0.3h0.4v-0.5h0.3v0.5h0.7v0.3
		h-0.7v1.5c0,0.2,0.1,0.4,0.3,0.4c0,0,0.1,0,0.1,0c0.1,0,0.3,0,0.4-0.1L389.5,221.6z"/>
	<path d="M392.3,219.3v2.4H392v-0.4c-0.2,0.3-0.5,0.5-0.9,0.5c-0.6,0-1-0.4-1-1c0,0,0,0,0-0.1v-1.4h0.3v1.4c0,0.5,0.3,0.8,0.7,0.8
		c0.4,0,0.8-0.3,0.8-0.7c0,0,0-0.1,0-0.1v-1.3H392.3z"/>
	<path d="M395.4,220.6h-2c0,0.5,0.4,0.9,0.9,0.9c0,0,0,0,0.1,0c0.3,0,0.6-0.1,0.7-0.3l0.2,0.2c-0.5,0.5-1.3,0.5-1.8,0
		c-0.2-0.2-0.4-0.6-0.4-0.9c0-0.6,0.5-1.2,1.1-1.2c0,0,0.1,0,0.1,0c0.6,0,1.2,0.5,1.2,1.1c0,0,0,0.1,0,0.1L395.4,220.6z
		 M393.4,220.3h1.7c-0.1-0.5-0.5-0.8-1-0.8C393.7,219.6,393.4,219.9,393.4,220.3z"/>
	<path d="M397.3,219.2v0.3h-0.1c-0.4,0-0.8,0.3-0.8,0.8c0,0,0,0.1,0,0.1v1.2H396v-2.4h0.3v0.5C396.5,219.4,396.9,219.2,397.3,219.2z
		"/>
	<path d="M290.4,225.8v1.5H290v-0.4c-0.2,0.3-0.5,0.4-0.8,0.4c-0.5,0-0.9-0.3-0.9-0.7s0.2-0.7,0.9-0.7h0.7v-0.1
		c0-0.4-0.2-0.6-0.7-0.6c-0.3,0-0.6,0.1-0.8,0.3l-0.1-0.2c0.3-0.2,0.6-0.3,1-0.3c0.5-0.1,0.9,0.2,1,0.7
		C290.4,225.6,290.4,225.7,290.4,225.8z M290,226.5v-0.4h-0.8c-0.5,0-0.6,0.2-0.6,0.4s0.2,0.5,0.6,0.5
		C289.6,227,289.9,226.8,290,226.5L290,226.5z"/>
	<path d="M293.5,223.8v3.4h-0.3v-0.5c-0.2,0.3-0.6,0.5-1,0.5c-0.7-0.1-1.2-0.7-1.1-1.4c0.1-0.6,0.5-1.1,1.1-1.1
		c0.4,0,0.7,0.2,0.9,0.5v-1.5H293.5z M293.2,226.1c0-0.5-0.4-0.9-0.9-0.9c-0.5,0-0.9,0.4-0.9,0.9c0,0.5,0.4,0.9,0.9,0.9
		C292.8,227,293.2,226.6,293.2,226.1C293.2,226.1,293.2,226.1,293.2,226.1L293.2,226.1z"/>
	<path d="M294.3,224.1c0-0.1,0.1-0.2,0.2-0.2c0.1,0,0.2,0.1,0.2,0.2c0,0,0,0,0,0c0,0.1-0.2,0.2-0.3,0.2
		C294.4,224.2,294.3,224.2,294.3,224.1z M294.4,224.8h0.3v2.4h-0.3V224.8z"/>
	<path d="M298.1,226.1c0,0.7-0.5,1.2-1.1,1.2c0,0-0.1,0-0.1,0c-0.4,0-0.7-0.2-0.9-0.5v1.4h-0.3v-3.3h0.3v0.5
		c0.2-0.3,0.6-0.5,0.9-0.5C297.6,224.8,298.1,225.3,298.1,226.1C298.1,226,298.1,226,298.1,226.1z M297.8,226.1
		c0-0.5-0.4-0.9-0.9-0.9s-0.9,0.4-0.9,0.9s0.4,0.9,0.9,0.9S297.8,226.6,297.8,226.1z"/>
	<path d="M298.7,224.1c0-0.1,0.1-0.2,0.2-0.2c0.1,0,0.2,0.1,0.2,0.2c0,0,0,0,0,0c0,0.1-0.1,0.2-0.2,0.2S298.7,224.2,298.7,224.1z
		 M298.8,224.8h0.3v2.4h-0.3V224.8z"/>
	<path d="M299.7,227l0.1-0.3c0.3,0.2,0.6,0.3,0.9,0.3c0.5,0,0.6-0.2,0.6-0.4c0-0.6-1.6-0.1-1.6-1.1c0-0.4,0.3-0.7,1-0.7
		c0.3,0,0.6,0.1,0.9,0.2l-0.1,0.3c-0.2-0.1-0.5-0.2-0.7-0.2c-0.4,0-0.6,0.2-0.6,0.4c0,0.7,1.6,0.2,1.6,1.1c0,0.4-0.4,0.7-1,0.7
		C300.4,227.3,300,227.2,299.7,227z"/>
	<path d="M302.1,226.1c0-0.7,0.5-1.2,1.2-1.2c0,0,0.1,0,0.1,0c0.4,0,0.8,0.2,1,0.5l-0.2,0.2c-0.2-0.2-0.4-0.4-0.7-0.4
		c-0.5,0.2-0.8,0.7-0.6,1.3c0.1,0.3,0.3,0.5,0.6,0.6c0.3,0,0.5-0.1,0.7-0.4l0.2,0.2c-0.2,0.3-0.6,0.5-1,0.5
		C302.7,227.3,302.1,226.8,302.1,226.1C302.1,226.1,302.1,226.1,302.1,226.1z"/>
	<path d="M304.8,224.1c0-0.1,0.1-0.2,0.2-0.2c0.1,0,0.2,0.1,0.2,0.2c0,0,0,0,0,0c0,0.1-0.1,0.2-0.2,0.2S304.8,224.2,304.8,224.1z
		 M304.9,224.8h0.3v2.4h-0.3V224.8z"/>
	<path d="M308.4,225.9v1.4h-0.3v-1.4c0.1-0.4-0.2-0.7-0.6-0.8c-0.1,0-0.1,0-0.2,0c-0.4,0-0.8,0.3-0.9,0.7c0,0,0,0.1,0,0.1v1.3h-0.3
		v-2.4h0.3v0.4c0.2-0.3,0.6-0.5,0.9-0.5c0.5,0,1,0.4,1,0.9C308.4,225.7,308.4,225.8,308.4,225.9z"/>
	<path d="M311.6,224.8v2.2c0.1,0.6-0.3,1.1-0.9,1.2c-0.1,0-0.2,0-0.3,0c-0.4,0-0.8-0.1-1.1-0.4l0.2-0.2c0.3,0.2,0.6,0.4,1,0.3
		c0.6,0,0.9-0.3,0.9-0.9v-0.3c-0.2,0.3-0.6,0.5-1,0.5c-0.7,0.1-1.2-0.4-1.3-1.1c-0.1-0.7,0.4-1.2,1.1-1.3c0.1,0,0.1,0,0.2,0
		c0.4,0,0.8,0.2,1,0.5v-0.5L311.6,224.8z M311.2,226c0-0.5-0.4-0.9-0.9-1s-0.9,0.4-1,0.9s0.4,0.9,0.9,1c0,0,0,0,0,0
		C310.8,226.9,311.2,226.6,311.2,226C311.3,226.1,311.3,226,311.2,226L311.2,226z"/>
	<path d="M315.8,226.2h-2c0,0.5,0.4,0.9,0.9,0.8c0,0,0,0,0.1,0c0.3,0,0.6-0.1,0.7-0.3l0.2,0.2c-0.5,0.5-1.3,0.5-1.8,0
		c-0.2-0.2-0.4-0.6-0.4-0.9c0-0.6,0.5-1.2,1.1-1.2c0,0,0.1,0,0.1,0c0.6,0,1.2,0.5,1.2,1.1c0,0,0,0.1,0,0.1L315.8,226.2z
		 M313.8,225.9h1.7c-0.1-0.5-0.5-0.8-1-0.8C314.2,225.2,313.9,225.5,313.8,225.9z"/>
	<path d="M316.5,223.8h0.3v3.4h-0.3V223.8z"/>
	<path d="M317.7,224.1c0-0.1,0.1-0.2,0.2-0.2c0.1,0,0.2,0.1,0.2,0.2c0,0,0,0,0,0c0,0.1-0.2,0.2-0.3,0.2
		C317.8,224.2,317.7,224.2,317.7,224.1z M317.8,224.8h0.3v2.4h-0.3V224.8z"/>
	<path d="M320.3,227.1c-0.1,0.1-0.3,0.2-0.5,0.2c-0.4,0-0.7-0.2-0.7-0.6c0,0,0-0.1,0-0.1v-1.5h-0.4v-0.3h0.4v-0.5h0.3v0.5h0.7v0.3
		h-0.7v1.5c0,0.2,0.1,0.4,0.3,0.4c0,0,0.1,0,0.1,0c0.1,0,0.3,0,0.4-0.1L320.3,227.1z"/>
	<path d="M321.2,227c0,0.1,0,0.2-0.1,0.3l-0.2,0.6h-0.2l0.2-0.7c-0.1,0-0.2-0.1-0.2-0.2c0-0.1,0.1-0.2,0.2-0.2
		C321.1,226.7,321.2,226.9,321.2,227C321.2,227,321.2,227,321.2,227z"/>
	<path d="M322.8,227l0.1-0.3c0.3,0.2,0.6,0.3,0.9,0.3c0.5,0,0.6-0.2,0.6-0.4c0-0.6-1.6-0.1-1.6-1.1c0-0.4,0.3-0.7,1-0.7
		c0.3,0,0.6,0.1,0.9,0.2l-0.1,0.3c-0.2-0.1-0.5-0.2-0.7-0.2c-0.4,0-0.6,0.2-0.6,0.4c0,0.7,1.6,0.2,1.6,1.1c0,0.4-0.4,0.7-1,0.7
		C323.4,227.3,323.1,227.2,322.8,227z"/>
	<path d="M327.5,226.2h-2c0,0.5,0.5,0.9,1,0.8c0,0,0,0,0,0c0.3,0,0.6-0.1,0.8-0.3l0.2,0.2c-0.5,0.5-1.3,0.5-1.8,0
		c-0.2-0.2-0.4-0.6-0.4-0.9c0-0.6,0.5-1.2,1.1-1.2c0,0,0.1,0,0.1,0c0.6,0,1.2,0.5,1.2,1.1c0,0,0,0.1,0,0.1L327.5,226.2z
		 M325.5,225.9h1.7c-0.1-0.5-0.5-0.8-1-0.8C325.9,225.2,325.6,225.5,325.5,225.9z"/>
	<path d="M330.4,223.8v3.4h-0.3v-0.5c-0.2,0.3-0.6,0.5-0.9,0.5c-0.7-0.1-1.2-0.7-1.1-1.4c0.1-0.6,0.5-1.1,1.1-1.1
		c0.4,0,0.7,0.2,0.9,0.5v-1.5H330.4z M330.1,226.1c0-0.5-0.4-0.9-0.9-0.9c-0.5,0-0.9,0.4-0.9,0.9c0,0.5,0.4,0.9,0.9,0.9
		C329.7,227,330.1,226.6,330.1,226.1C330.1,226.1,330.1,226.1,330.1,226.1z"/>
	<path d="M334.8,223.8v3.4h-0.3v-0.5c-0.2,0.3-0.6,0.5-0.9,0.5c-0.7-0.1-1.2-0.7-1.1-1.4c0.1-0.6,0.5-1.1,1.1-1.1
		c0.4,0,0.7,0.2,0.9,0.5v-1.5H334.8z M334.4,226.1c0-0.5-0.4-0.9-0.9-0.9c-0.5,0-0.9,0.4-0.9,0.9c0,0.5,0.4,0.9,0.9,0.9
		C334,227,334.4,226.6,334.4,226.1C334.4,226.1,334.4,226.1,334.4,226.1z"/>
	<path d="M335.6,224.1c0-0.1,0.1-0.2,0.2-0.2c0.1,0,0.2,0.1,0.2,0.2c0,0.1-0.1,0.2-0.2,0.2l0,0C335.7,224.3,335.6,224.2,335.6,224.1
		C335.6,224.1,335.6,224.1,335.6,224.1z M335.7,224.8h0.3v2.4h-0.3L335.7,224.8z"/>
	<path d="M338.8,225.8v1.5h-0.3v-0.4c-0.2,0.3-0.5,0.4-0.8,0.4c-0.5,0-0.9-0.3-0.9-0.7s0.2-0.7,0.9-0.7h0.8v-0.1
		c0-0.3-0.2-0.6-0.5-0.7c0,0-0.1,0-0.1,0c-0.3,0-0.6,0.1-0.8,0.3l-0.1-0.2c0.3-0.2,0.6-0.3,1-0.3c0.5-0.1,0.9,0.3,1,0.7
		C338.8,225.6,338.8,225.7,338.8,225.8z M338.4,226.5v-0.4h-0.8c-0.5,0-0.6,0.2-0.6,0.4s0.2,0.5,0.6,0.5
		C338,227.1,338.3,226.9,338.4,226.5z"/>
	<path d="M343.7,225.9v1.4h-0.3v-1.4c0-0.5-0.3-0.8-0.7-0.8c-0.4,0-0.8,0.3-0.8,0.8c0,0,0,0.1,0,0.1v1.3h-0.3v-1.4
		c0-0.5-0.3-0.8-0.7-0.8c-0.4,0-0.8,0.3-0.8,0.8c0,0,0,0.1,0,0.1v1.3h-0.3v-2.4h0.3v0.4c0.2-0.3,0.5-0.5,0.9-0.5
		c0.4,0,0.7,0.2,0.9,0.5c0.2-0.4,0.6-0.6,1-0.5c0.5,0,0.9,0.4,0.9,0.9C343.7,225.8,343.7,225.8,343.7,225.9z"/>
	<path d="M346.5,225l-1.6,0.6l1.6,0.6v0.4l-2.1-0.8v-0.4l2.1-0.8V225z"/>
	<path d="M348.2,223.4h0.4l-1.5,4.4h-0.4L348.2,223.4z"/>
	<path d="M351.7,224v3.2h-0.5v-1.4h-1.9v1.4h-0.5V224h0.5v1.4h1.9V224H351.7z"/>
	<path d="M353.4,224v3.2H353v-2.8h-0.7V224H353.4z"/>
	<path d="M356.3,225.4v0.4l-2.1,0.8v-0.4l1.7-0.6l-1.7-0.6v-0.4L356.3,225.4z"/>
	<path d="M290.5,236.1l-1.6,0.6l1.6,0.6v0.4l-2.1-0.8v-0.4l2.1-0.8V236.1z"/>
	<path d="M293.9,236.3c0,0.7-0.5,1.1-1.4,1.1h-0.8v1h-0.5v-3.2h1.3C293.4,235.1,293.9,235.6,293.9,236.3z M293.4,236.3
		c0-0.5-0.3-0.7-0.9-0.7h-0.8v1.4h0.8C293.1,237,293.4,236.7,293.4,236.3z"/>
	<path d="M296.5,236.6v0.4l-2.1,0.8v-0.4l1.6-0.6l-1.6-0.6v-0.4L296.5,236.6z"/>
	<path d="M300.4,236.1l-1.6,0.6l1.6,0.6v0.4l-2.1-0.8v-0.4l2.1-0.8V236.1z"/>
	<path d="M301.2,235.1h0.5v3.2h-0.5V235.1z"/>
	<path d="M305.7,238.4V236l-1.2,2h-0.2l-1.2-2v2.4h-0.4v-3.2h0.4l1.4,2.3l1.3-2.3h0.4v3.2L305.7,238.4z"/>
	<path d="M309.3,236.8h0.5v1.2c-0.4,0.3-0.8,0.4-1.2,0.4c-0.9,0-1.6-0.8-1.6-1.7s0.8-1.6,1.7-1.6c0.4,0,0.8,0.2,1.1,0.5l-0.3,0.3
		c-0.2-0.3-0.6-0.4-0.9-0.4c-0.7,0-1.2,0.6-1.2,1.2s0.6,1.2,1.2,1.2c0.3,0,0.5-0.1,0.8-0.2L309.3,236.8z"/>
	<path d="M311.6,238l0.2-0.4c0.3,0.2,0.7,0.4,1.1,0.4c0.6,0,0.8-0.2,0.8-0.5c0-0.8-2-0.3-2-1.5c0-0.5,0.4-0.9,1.2-0.9
		c0.4,0,0.7,0.1,1,0.3l-0.2,0.4c-0.3-0.2-0.6-0.3-0.9-0.3c-0.5,0-0.8,0.2-0.8,0.5c0,0.8,2,0.3,2,1.5c0,0.5-0.4,0.9-1.3,0.9
		C312.4,238.4,312,238.3,311.6,238z"/>
	<path d="M317,238.4l-0.7-1h-1v1h-0.5v-3.2h1.3c0.9,0,1.4,0.4,1.4,1.1c0,0.5-0.3,0.9-0.7,1l0.8,1.1L317,238.4z M317,236.3
		c0-0.5-0.3-0.7-0.9-0.7h-0.8v1.4h0.8C316.6,237,317,236.7,317,236.3z"/>
	<path d="M317.9,236.8c0-0.9,0.7-1.6,1.6-1.7c0,0,0.1,0,0.1,0c0.5,0,0.9,0.2,1.2,0.5l-0.3,0.3c-0.2-0.3-0.6-0.4-0.9-0.4
		c-0.7,0-1.2,0.6-1.2,1.2s0.6,1.2,1.2,1.2c0.3,0,0.7-0.1,0.9-0.4l0.3,0.3c-0.3,0.3-0.8,0.5-1.2,0.5c-0.9,0-1.7-0.7-1.7-1.6
		C317.9,236.8,317.9,236.8,317.9,236.8z"/>
	<path d="M321.3,236h2.1v0.4h-2.1V236z M321.3,237.1h2.1v0.4h-2.1V237.1z"/>
	<path d="M325.3,235.1h0.4v1.2h-0.3L325.3,235.1z M326.1,235.1h0.4v1.2h-0.3L326.1,235.1z"/>
	<path d="M327.3,235.1h0.5v2.9h1.8v0.4h-2.2V235.1z"/>
	<path d="M329.7,237.2c0-0.7,0.6-1.3,1.3-1.3c0.7,0,1.3,0.6,1.3,1.3s-0.6,1.3-1.3,1.3c0,0,0,0,0,0c-0.7,0-1.2-0.5-1.3-1.2
		C329.7,237.2,329.7,237.2,329.7,237.2z M331.8,237.2c0.1-0.5-0.3-0.9-0.7-0.9c-0.5-0.1-0.9,0.3-0.9,0.7c0,0.1,0,0.1,0,0.2
		c-0.1,0.5,0.3,0.9,0.7,0.9c0.5,0.1,0.9-0.3,0.9-0.7C331.8,237.3,331.8,237.2,331.8,237.2z"/>
	<path d="M334.2,235.9v0.4h-0.1c-0.4,0-0.8,0.3-0.8,0.7c0,0,0,0.1,0,0.1v1.2h-0.4v-2.4h0.4v0.4C333.5,236.1,333.8,235.9,334.2,235.9
		z"/>
	<path d="M336.9,237.3h-2c0.1,0.4,0.4,0.8,0.9,0.7c0.3,0,0.5-0.1,0.7-0.3l0.2,0.3c-0.5,0.5-1.4,0.5-1.9,0c-0.2-0.2-0.4-0.5-0.4-0.9
		c0-0.7,0.5-1.2,1.2-1.2c0,0,0,0,0.1,0c0.7,0,1.2,0.5,1.2,1.1c0,0,0,0.1,0,0.1V237.3z M334.9,237h1.6c-0.1-0.4-0.5-0.7-0.9-0.7
		C335.3,236.4,335,236.6,334.9,237z"/>
	<path d="M341.6,237v1.4h-0.4V237c0-0.5-0.2-0.7-0.6-0.7s-0.7,0.3-0.7,0.8v1.3h-0.4V237c0-0.5-0.2-0.7-0.6-0.7
		c-0.4,0-0.7,0.3-0.7,0.7c0,0,0,0.1,0,0.1v1.3h-0.4v-2.4h0.5v0.4c0.2-0.3,0.5-0.4,0.8-0.4c0.4,0,0.7,0.2,0.9,0.5
		c0.2-0.3,0.6-0.5,0.9-0.5c0.6,0,1,0.5,1,1C341.6,236.9,341.6,237,341.6,237z"/>
	<path d="M343.6,235.2c0-0.2,0.1-0.3,0.3-0.3c0,0,0,0,0,0c0.2,0,0.3,0.1,0.3,0.3c0,0.2-0.1,0.3-0.3,0.3
		C343.8,235.5,343.6,235.4,343.6,235.2C343.6,235.2,343.6,235.2,343.6,235.2z M343.7,235.9h0.5v2.4h-0.5V235.9z"/>
	<path d="M347.5,237.2c0,0.7-0.5,1.2-1.1,1.3c0,0-0.1,0-0.1,0c-0.3,0-0.7-0.1-0.9-0.4v1.3H345v-3.4h0.4v0.4c0.2-0.3,0.5-0.4,0.9-0.4
		c0.7,0,1.2,0.5,1.2,1.1C347.5,237.1,347.5,237.1,347.5,237.2z M347.1,237.2c0-0.5-0.4-0.8-0.9-0.8c-0.5,0-0.8,0.4-0.8,0.9
		c0,0.4,0.4,0.8,0.8,0.8C346.7,238,347.1,237.7,347.1,237.2C347.1,237.2,347.1,237.2,347.1,237.2z"/>
	<path d="M347.8,238.1l0.2-0.4c0.3,0.2,0.6,0.3,0.9,0.3c0.4,0,0.6-0.1,0.6-0.3c0-0.6-1.6-0.1-1.6-1c0-0.4,0.4-0.7,1-0.7
		c0.3,0,0.6,0.1,0.9,0.2l-0.2,0.4c-0.2-0.1-0.5-0.2-0.7-0.2c-0.4,0-0.6,0.1-0.6,0.3c0,0.6,1.5,0.1,1.5,1.1c0,0.4-0.4,0.7-1.1,0.7
		C348.5,238.5,348.1,238.3,347.8,238.1z"/>
	<path d="M352.8,235.9v2.4h-0.4V238c-0.2,0.3-0.5,0.4-0.8,0.4c-0.6,0-1-0.4-1.1-0.9c0,0,0-0.1,0-0.1v-1.4h0.5v1.4
		c0,0.5,0.2,0.7,0.7,0.7c0.4,0,0.7-0.3,0.8-0.7c0-0.1,0-0.1,0-0.2v-1.3L352.8,235.9z"/>
	<path d="M357.7,237v1.4h-0.5V237c0-0.5-0.2-0.7-0.6-0.7s-0.7,0.3-0.7,0.8v1.3h-0.5V237c0-0.5-0.2-0.7-0.6-0.7s-0.7,0.3-0.7,0.8v1.3
		h-0.4v-2.4h0.4v0.4c0.2-0.3,0.5-0.4,0.9-0.4c0.3,0,0.7,0.2,0.9,0.5c0.2-0.3,0.6-0.5,1-0.5c0.6,0,1,0.4,1,1
		C357.7,236.9,357.7,236.9,357.7,237z"/>
	<path d="M358.4,235.1h0.4v1.2h-0.3L358.4,235.1z M359.2,235.1h0.4v1.2h-0.3L359.2,235.1z"/>
	<path d="M362.3,236.6v0.4l-2.1,0.8v-0.4l1.6-0.6l-1.6-0.6v-0.4L362.3,236.6z"/>
	<path d="M365,236.1l-1.6,0.6l1.6,0.6v0.4l-2.1-0.8v-0.4l2.1-0.8L365,236.1z"/>
	<path d="M366.7,234.5h0.4l-1.5,4.4h-0.4L366.7,234.5z"/>
	<path d="M370,236.3c0,0.7-0.5,1.1-1.4,1.1h-0.8v1h-0.5v-3.2h1.3C369.5,235.1,370,235.6,370,236.3z M369.5,236.3
		c0-0.5-0.3-0.7-0.9-0.7h-0.8v1.4h0.8C369.2,237,369.6,236.7,369.5,236.3L369.5,236.3z"/>
	<path d="M372.6,236.6v0.4l-2.1,0.8v-0.4l1.7-0.6l-1.7-0.6v-0.4L372.6,236.6z"/>
	<path d="M290.5,247.3l-1.6,0.6l1.6,0.6v0.4l-2.1-0.8v-0.4l2.1-0.8V247.3z"/>
	<path d="M292.2,245.6h0.4L291,250h-0.4L292.2,245.6z"/>
	<path d="M295.7,248.6c0,0.6-0.4,0.9-1.2,0.9h-1.5v-3.2h1.5c0.8,0,1.2,0.3,1.2,0.8c0,0.3-0.2,0.6-0.4,0.7
		C295.4,247.9,295.7,248.3,295.7,248.6z M293.3,246.6v1h1c0.5,0,0.8-0.2,0.8-0.5s-0.3-0.5-0.8-0.5L293.3,246.6z M295.2,248.6
		c0-0.4-0.3-0.5-0.8-0.5h-1.1v1.1h1.1C294.9,249.1,295.2,249,295.2,248.6L295.2,248.6z"/>
	<path d="M296.1,247.9c0-1,0.7-1.8,1.7-1.8c1,0,1.8,0.7,1.8,1.7c0,1-0.7,1.8-1.7,1.8c0,0,0,0-0.1,0
		C296.9,249.6,296.2,248.9,296.1,247.9C296.1,248,296.1,247.9,296.1,247.9z M299.1,247.9c0-0.7-0.6-1.3-1.2-1.3s-1.3,0.6-1.3,1.2
		c0,0.7,0.6,1.3,1.2,1.3c0,0,0,0,0,0C298.5,249.2,299.1,248.6,299.1,247.9C299.1,247.9,299.1,247.9,299.1,247.9L299.1,247.9z"/>
	<path d="M300.3,246.3h1.4c0.9-0.1,1.7,0.6,1.8,1.5c0.1,0.9-0.6,1.7-1.5,1.8c-0.1,0-0.2,0-0.3,0h-1.4V246.3z M301.6,249.1
		c0.7,0,1.2-0.5,1.2-1.2s-0.5-1.2-1.2-1.2h-0.9v2.4H301.6z"/>
	<path d="M305.2,248.4v1.1h-0.5v-1.1l-1.3-2.1h0.5l1,1.7l1-1.7h0.5L305.2,248.4z"/>
	<path d="M308.9,247.7v0.4l-2.1,0.8v-0.4l1.6-0.6l-1.6-0.6v-0.4L308.9,247.7z"/>
	<path class="st6" d="M415.2,160.4c0,0.1-32.1,0.3-71.7,0.3s-71.7-0.1-71.7-0.3s32.1-0.3,71.7-0.3S415.2,160.2,415.2,160.4z"/>
	<path class="st6" d="M276.1,155.2c0,0.5-0.4,0.9-0.9,0.9c-0.5,0-0.9-0.4-0.9-0.9c0-0.5,0.4-0.9,0.9-0.9
		C275.7,154.3,276.1,154.7,276.1,155.2z"/>
	<circle class="st6" cx="278.8" cy="155.2" r="0.9"/>
	<path class="st6" d="M283.2,155.2c0,0.5-0.4,0.9-0.9,0.9c-0.5,0-0.9-0.4-0.9-0.9s0.4-0.9,0.9-0.9c0,0,0,0,0,0
		C282.8,154.3,283.2,154.7,283.2,155.2z"/>
	<path class="st1" d="M281,268.8c-0.1,0-0.3-24.3-0.3-54.3s0.1-54.3,0.3-54.3s0.3,24.3,0.3,54.3S281.1,268.8,281,268.8z"/>
	<rect x="80.2" y="54.8" class="st7" width="59.2" height="42.2"/>
	<path class="st0" d="M139.9,61c0,0.1-13.4,0.3-29.9,0.3S80.2,61.2,80.2,61s13.4-0.3,29.9-0.3S139.9,60.9,139.9,61z"/>
	<path class="st0" d="M85.1,58c0.1,0.4-0.2,0.9-0.7,0.9s-0.9-0.2-0.9-0.7c-0.1-0.4,0.2-0.9,0.7-0.9c0,0,0.1,0,0.1,0
		C84.7,57.3,85,57.6,85.1,58C85,58,85,58,85.1,58z"/>
	<path class="st0" d="M88,58c0,0.4-0.4,0.7-0.8,0.7c0,0,0,0,0,0c-0.4,0-0.7-0.4-0.6-0.8c0-0.4,0.4-0.7,0.8-0.6
		C87.7,57.3,88,57.6,88,58z"/>
	<ellipse class="st0" cx="90.1" cy="58" rx="0.8" ry="0.7"/>
	<path class="st0" d="M102.1,77.9c0,2.5-1.8,4.1-4.9,4.1h-3.2v3.8h-1.3V73.8h4.5C100.3,73.8,102.1,75.3,102.1,77.9z M100.9,77.9
		c0-1.9-1.3-3-3.7-3h-3.2v5.9h3.2C99.6,80.8,100.9,79.8,100.9,77.9z"/>
	<path class="st0" d="M114.8,73.8v11.9h-1.2v-5.5h-7.5v5.5h-1.3V73.8h1.3v5.3h7.4v-5.3H114.8z"/>
	<path class="st0" d="M128,77.9c0,2.5-1.8,4.1-4.9,4.1h-3.2v3.8h-1.3V73.8h4.5C126.2,73.8,128,75.3,128,77.9z M126.7,77.9
		c0-1.9-1.3-3-3.6-3h-3.2v5.9h3.2C125.5,80.8,126.7,79.8,126.7,77.9L126.7,77.9z"/>
	<rect x="402.4" y="216.3" class="st7" width="53.6" height="38.2"/>
	<path class="st0" d="M420.5,234v7.6h-1.8v-3.1h-3.4v3.1h-1.8V234h1.8v3h3.4v-3H420.5z"/>
	<path class="st0" d="M423.8,235.5h-2.4V234h6.6v1.4h-2.4v6.1h-1.8V235.5z"/>
	<path class="st0" d="M428.9,234h1.8v6.1h3.8v1.4h-5.6V234z"/>
	<path class="st0" d="M442.4,241.6v-4.5l-2.2,3.7h-0.8l-2.2-3.6v4.4h-1.6V234h1.5l2.8,4.7l2.8-4.7h1.4v7.6L442.4,241.6z"/>
	<path class="st0" d="M456.4,222c0,0.1-12.1,0.2-27,0.2s-27-0.1-27-0.2s12.1-0.2,27-0.2S456.4,221.9,456.4,222z"/>
	<path class="st0" d="M406.8,219.2c-0.1,0.4-0.4,0.7-0.8,0.6c-0.3-0.1-0.5-0.3-0.6-0.6c0.1-0.4,0.4-0.7,0.8-0.6
		C406.5,218.6,406.7,218.9,406.8,219.2z"/>
	<path class="st0" d="M409.4,219.2c-0.1,0.4-0.4,0.7-0.8,0.6c-0.3-0.1-0.5-0.3-0.6-0.6c0.1-0.4,0.4-0.7,0.8-0.6
		C409.1,218.6,409.3,218.9,409.4,219.2z"/>
	<path class="st0" d="M412,219.2c0.1,0.4-0.2,0.8-0.6,0.8c-0.4,0.1-0.8-0.2-0.8-0.6c-0.1-0.4,0.2-0.8,0.6-0.8c0,0,0.1,0,0.1,0
		C411.7,218.5,412,218.8,412,219.2z"/>
	<rect x="51.8" y="215.8" class="st7" width="39.5" height="28.1"/>
	<path class="st0" d="M91.6,219.9c0,0.1-8.9,0.1-19.9,0.1s-19.9-0.1-19.9-0.1s8.9-0.1,19.9-0.1S91.6,219.9,91.6,219.9z"/>
	<path class="st0" d="M55,217.9c0,0.3-0.3,0.5-0.5,0.5c-0.3,0-0.5-0.2-0.5-0.4c0,0,0,0,0,0c0-0.3,0.3-0.5,0.5-0.5c0,0,0,0,0,0
		C54.7,217.4,55,217.6,55,217.9C55,217.9,55,217.9,55,217.9z"/>
	<path class="st0" d="M56.9,217.9c0,0.3-0.3,0.5-0.6,0.5c-0.2,0-0.4-0.2-0.5-0.5c0-0.3,0.3-0.5,0.6-0.5
		C56.7,217.5,56.9,217.6,56.9,217.9z"/>
	<path class="st0" d="M58.9,217.9c0,0.3-0.2,0.6-0.5,0.6s-0.6-0.2-0.6-0.5c0-0.3,0.2-0.6,0.5-0.6c0,0,0,0,0.1,0
		C58.6,217.4,58.9,217.6,58.9,217.9z"/>
	<path class="st7" d="M287,107.3c-0.1-4.1,3.2-7.5,7.3-7.5c0.1,0,0.3,0,0.4,0c2-0.1,3.9,0.6,5.3,2l-0.7,0.7
		c-1.2-1.2-2.9-1.8-4.5-1.8c-3.6-0.2-6.7,2.5-6.9,6.1c-0.2,3.6,2.5,6.7,6.1,6.9c0.2,0,0.5,0,0.7,0c1.7,0.1,3.3-0.6,4.5-1.8l0.7,0.7
		c-1.4,1.4-3.3,2.1-5.3,2.1c-4.1,0.2-7.5-3-7.7-7.1C287.1,107.5,287,107.4,287,107.3z"/>
	<path class="st7" d="M302,112.8l0.5-0.8c1.3,1.2,3.1,1.9,4.9,1.9c3,0,4.3-1.3,4.3-2.9c0-4.4-9.2-1.8-9.2-7.2c0-2.1,1.6-3.9,5.2-3.9
		c1.6,0,3.1,0.5,4.5,1.3l-0.4,0.9c-1.2-0.8-2.6-1.2-4.1-1.2c-2.9,0-4.2,1.3-4.2,3c0,4.4,9.2,1.8,9.2,7.2c0,2.1-1.7,3.9-5.3,3.9
		C305.4,114.9,303.5,114.1,302,112.8z"/>
	<path class="st7" d="M314.9,112.8l0.5-0.8c1.3,1.2,3.1,1.9,4.9,1.9c3,0,4.3-1.3,4.3-2.9c0-4.4-9.2-1.8-9.2-7.2
		c0-2.1,1.6-3.9,5.2-3.9c1.6,0,3.1,0.5,4.5,1.3l-0.4,0.9c-1.2-0.8-2.6-1.2-4.1-1.2c-2.9,0-4.2,1.3-4.2,3c0,4.4,9.2,1.8,9.2,7.2
		c0,2.1-1.7,3.9-5.3,3.9C318.3,114.9,316.3,114.1,314.9,112.8z"/>
	<path class="st7" d="M338.2,126.5c0,0,0-0.3,0-0.8s0-1.3,0-2.3c0-2,0-4.9-0.1-8.6c0-7.4-0.1-18-0.1-31l0.2,0.2h-65.9l0,0l0.3-0.3
		c0,15.1,0,29.5,0,42.6l-0.2-0.2l47.4,0.1l13.6,0.1h3.6h0.9l0,0H337h-3.6l-13.5,0.1l-47.6,0.1h-0.2v-0.2c0-13,0-27.4,0-42.6v-0.1
		h0.3l65.9,0.1h0.2V84c0,13-0.1,23.7-0.1,31.1c0,3.7,0,6.5,0,8.5c0,1,0,1.7,0,2.2S338.2,126.5,338.2,126.5z"/>
	<path class="st7" d="M338.2,90.3c0,0.1-14.8,0.3-33,0.3s-33-0.1-33-0.3s14.8-0.3,33-0.3S338.2,90.1,338.2,90.3z"/>
	<path class="st7" d="M277.2,87.2c0.1,0.4-0.2,0.9-0.7,0.9c-0.4,0.1-0.9-0.2-0.9-0.7c-0.1-0.4,0.2-0.9,0.7-0.9c0,0,0.1,0,0.1,0
		C276.8,86.4,277.1,86.8,277.2,87.2C277.2,87.2,277.2,87.2,277.2,87.2z"/>
	<path class="st7" d="M280.1,87.2c0.1,0.4-0.2,0.9-0.7,0.9c-0.4,0.1-0.9-0.2-0.9-0.7c-0.1-0.4,0.2-0.9,0.7-0.9c0,0,0.1,0,0.1,0
		C279.7,86.4,280.1,86.8,280.1,87.2C280.1,87.2,280.1,87.2,280.1,87.2z"/>
	<path class="st7" d="M283,87.2c0.1,0.4-0.2,0.9-0.7,0.9c-0.4,0.1-0.9-0.2-0.9-0.7c-0.1-0.4,0.2-0.9,0.7-0.9c0,0,0.1,0,0.1,0
		C282.6,86.4,283,86.8,283,87.2C283,87.2,283,87.2,283,87.2z"/>
	<path class="st0" d="M218.1,31c0,0.1-13.4,0.3-29.9,0.3s-29.9-0.1-29.9-0.3s13.4-0.3,29.9-0.3S218.1,30.8,218.1,31z"/>
	<path class="st0" d="M163.2,27.9c0.1,0.4-0.2,0.9-0.7,0.9s-0.9-0.2-0.9-0.7s0.2-0.9,0.7-0.9c0,0,0.1,0,0.1,0
		C162.8,27.2,163.1,27.5,163.2,27.9C163.2,27.9,163.2,27.9,163.2,27.9z"/>
	<path class="st0" d="M166.1,27.9c0,0.4-0.4,0.7-0.8,0.7c0,0,0,0,0,0c-0.4,0-0.7-0.4-0.6-0.8c0-0.4,0.4-0.7,0.8-0.6
		C165.9,27.2,166.1,27.6,166.1,27.9z"/>
	<ellipse class="st0" cx="168.2" cy="27.9" rx="0.8" ry="0.7"/>
</g>
<g id="Character--inject-106">
	<path class="st6" d="M230.5,198.7c0.5,1.5,4.1,2.1,6.6,1.6c0.6-0.1,2.1-0.5,4.6-2.7c3-2.6,4.9-5.5,6.1-7.8
		c2.2-4.2,2.9-7.9,3.4-10.7c1.1-6.3,1.1-12.9,0.3-13c-0.9-0.1,0,10.5-6.6,19.5C238.8,194,229.7,196.1,230.5,198.7z"/>
	<path class="st8" d="M147.9,272l26.1,88.1c1.2,3.9,4.8,6.6,8.8,6.6l106,0.3c5.4,0,9.8-4.4,9.8-9.8c0-0.2,0-0.4,0-0.5l0,0
		c-0.3-5.2-4.6-9.3-9.8-9.3h-40.5L215.9,257h-56.8c-6.4,0-11.7,5.2-11.7,11.7C147.4,269.8,147.6,270.9,147.9,272z"/>
	<path class="st6" d="M237.6,354.7c0,0.2-10.8,0.4-24.1,0.4s-24.1-0.2-24.1-0.4s10.8-0.4,24.1-0.4S237.6,354.5,237.6,354.7z"/>
	<path class="st6" d="M155.7,259.8c0.2-0.1,7.4,21,16.1,47.2s15.6,47.3,15.4,47.4s-7.4-21-16.1-47.2S155.5,259.9,155.7,259.8z"/>
	<polygon class="st8" points="233.1,445.1 226.7,444.9 226.7,366.7 233.1,366.7 	"/>
	<polygon class="st8" points="199.9,444.7 260,444.7 232.8,435.3 226.3,435.3 	"/>
	<path class="st7" d="M184.6,238.9l9.9,53.1l-8.8,57.5l73.9-29.6l-2.6-34.8l-0.1-28.9l16.4,34l12.8-26.4l-23.4-45.3l0,0
		c-4.3-4.8-9.5-8.4-15.3-10.6c-3.1-1.2-6.3-1.9-9.6-2l0,0c-7.5,2.5-15.6,2.5-23.1,0c-0.9,0.1-2.2,0.3-3.9,0.5h-0.3
		c-14.2,1.9-25.1,14.4-25.8,29.7L184.6,238.9z"/>
	<path class="st7" d="M210.9,206.5c0,0-27.5,0.2-30.9,29.2l-0.5,21.3l23.7-0.2L210.9,206.5z"/>
	<path class="st9" d="M276.5,243.8c0,0.2-21.6,0.4-48.3,0.4S180,244,180,243.8s21.6-0.4,48.3-0.4S276.5,243.6,276.5,243.8z"/>
	<path class="st9" d="M276.5,248.4c0,0.2-21.6,0.4-48.3,0.4s-48.3-0.2-48.3-0.4s21.6-0.4,48.3-0.4S276.5,248.2,276.5,248.4z"/>
	<path class="st9" d="M275,240c0,0.2-21.3,0.4-47.5,0.4S180,240.2,180,240s21.3-0.4,47.5-0.4S275,239.8,275,240z"/>
	<path class="st6" d="M256.7,284.8c-0.2,0-0.1-11.8,0.2-26.3s0.8-26.3,1-26.3s0.1,11.8-0.2,26.3S256.9,284.8,256.7,284.8z"/>
	<path class="st10" d="M247.3,265.7c0,0,13,0.9,15.3,4.4s5.9,13.2,4.6,13.3c-0.8,0-1.7-0.2-2.3-0.7l-3.6-6.3c0,0,0.6,6.1-1.6,6.2
		s-12.7,2.2-12.7,2.2L247.3,265.7z"/>
	<path class="st7" d="M179.6,251.3l-0.1,33.5c0.4,7,6.4,12.4,13.4,12c0.7,0,1.4-0.1,2-0.3l52.4-10.8l-0.1-21.5L202,273l-0.6-22.8
		L179.6,251.3z"/>
	<path class="st6" d="M209.5,293.9c0.2-0.1,0.5-0.1,0.7-0.2l2-0.5l7.7-1.6l27.3-5.6l-0.3,0.3c0-6.7,0-14.2,0-22.1l0.4,0.4l-9.2,1.8
		l-36,6.9l-0.4,0.1V273c0.3-10,0.6-18.3,0.8-24.2c0.1-2.9,0.2-5.1,0.3-6.8c0-0.7,0.1-1.3,0.1-1.8c0-0.2,0-0.4,0.1-0.6
		c0,0.2,0,0.4,0,0.6c0,0.5,0,1,0,1.8c0,1.6-0.1,3.9-0.1,6.8c-0.1,5.9-0.3,14.2-0.6,24.2l-0.4-0.3l36-7l9.2-1.8l0.4-0.1v0.5
		c0,7.9,0,15.3,0,22.1v0.3l-0.3,0L220,292l-7.7,1.5l-2.1,0.4C210,293.9,209.7,293.9,209.5,293.9z"/>
	<path class="st9" d="M242.1,287.6c-0.1-1.1-0.1-2.2,0-3.3c0.1-2,0.2-4.8,0.2-7.9s0-5.9-0.1-8c-0.1-1.1-0.1-2.2,0-3.3
		c0.3,1.1,0.5,2.2,0.5,3.3c0.2,2,0.3,4.9,0.3,8s-0.2,5.9-0.4,8C242.5,285.4,242.3,286.5,242.1,287.6z"/>
	<path class="st9" d="M239.3,288.1c-0.1-1.1-0.2-2.2-0.1-3.3c0-2.3,0.1-5,0.1-7.9V269c-0.1-1.1,0-2.2,0.1-3.3
		c0.3,1.1,0.4,2.2,0.4,3.3c0.1,2,0.2,4.8,0.2,7.9s-0.1,5.9-0.3,7.9C239.8,285.9,239.6,287,239.3,288.1z"/>
	<path class="st7" d="M291.4,419.4l9.4,18.1c4.1,2.8,8.2,5.6,12.2,8.5c0.6,0.5,2.1,1.9,2.1,3.8c0,1.4-0.8,2.8-1.7,3.3
		c0,0-0.1,0-0.1,0.1c-1.9,0.8-5.7,1.5-6.8,1.6c-2.3,0.2-12.1-1.3-21.5-10.2c-9.7-9.2-13.4-21-13.4-21L291.4,419.4z"/>
	<g class="st11">
		<path class="st0" d="M304.5,476.1L274,461.4l0.5,1.1c0.4,1,1.1,1.8,2,2.3c2.5,1.4,9.5,4.9,25.2,11.5
			C302.6,476.7,303.7,476.6,304.5,476.1L304.5,476.1z"/>
	</g>
	<path class="st7" d="M321.4,414.1l-0.7,18.2c0,0,17.2,6.8,17.4,10.2c0.3,1.2,0.4,2.5-0.1,3.5c-0.7,1.2-2.9,3-19.6-0.4
		c-5.4-1.1-10-2.3-13.6-3.3c0-9.5-0.1-19-0.1-28.5L321.4,414.1z"/>
	<path class="st6" d="M303.9,307.5c-21.6,2.5-50.2,5.9-50.2,5.9l3.9,39.8c0,0,42-12.6,41.7-11.5c-0.3,1,2,84.7,2,84.7h25.3l0.5-94.8
		c0.2-13.2-9.1-24-20.7-24.2C305.6,307.4,304.7,307.4,303.9,307.5z"/>
	<path class="st6" d="M208,337.9c-1.3,1.7-2.5,3.4-3.8,5.1c0,7.5,8.7,15.4,16.4,15.4h5.9c4.7,0,12-3.3,15.8-6l2.3-1.6l27.3,82.4
		c0,0,31.2-5.5,31.2-6.4c0-1-21.2-67.5-30.9-98.4c-4-12.6-17.9-19.9-30.7-15.7c-0.4,0.1-0.7,0.2-1.3,0.5
		C234.7,315.5,224.6,321.2,208,337.9z"/>
	<path class="st8" d="M300.3,423.1c-0.1-0.1-0.1-0.2-0.1-0.3c-0.1-0.2-0.2-0.5-0.4-0.8c-0.3-0.8-0.8-1.9-1.3-3.3
		c-1.1-2.9-2.6-7.1-4.4-12.4c-3.7-10.5-8.5-25-13.7-41.1c-2.6-8-5.1-15.7-7.4-22.7c-1.1-3.5-2.2-6.8-3.2-9.9c-0.5-1.6-1-3-1.5-4.5
		c-0.4-1.4-0.9-2.7-1.5-4.1c-1-2.3-2.6-4.3-4.6-6c-1.5-1.3-3.1-2.4-4.8-3.4c-1.4-0.8-2.5-1.5-3.2-1.9l-0.8-0.5
		c-0.1,0-0.2-0.1-0.3-0.2c0.1,0,0.2,0.1,0.3,0.1l0.9,0.4c0.8,0.4,1.9,1,3.3,1.8c1.7,1,3.4,2.1,4.9,3.3c2.1,1.7,3.7,3.7,4.8,6
		c0.6,1.3,1.1,2.7,1.5,4.1c0.5,1.4,1,2.9,1.5,4.5l3.3,9.9c2.3,7,4.8,14.6,7.5,22.7c5.3,16,10,30.6,13.5,41.2l4.2,12.4l1.2,3.3
		c0.1,0.4,0.2,0.6,0.3,0.9C300.3,423,300.3,423.1,300.3,423.1z"/>
	<path class="st8" d="M312.3,330.9c0.2,0.1-1.5,2.7-2.9,6.1s-2,6.4-2.3,6.4s0.1-3.1,1.6-6.7S312.1,330.8,312.3,330.9z"/>
	<path class="st8" d="M318,334.9c0.1,0.2-2.5,1.3-5.1,3.4s-4.4,4.3-4.6,4.2s1.3-2.6,4.1-4.8S317.9,334.7,318,334.9z"/>
	<polygon class="st8" points="231.5,292.6 333.1,293.6 352.1,240 278.1,240.5 261,288.7 231.5,289.1 	"/>
	<path class="st0" d="M308.5,271.4c-2.3-0.3-3.8-2.4-3.5-4.7c0.3-2.3,2.4-3.8,4.7-3.5c2.3,0.3,3.8,2.4,3.5,4.7c0,0,0,0,0,0
		C312.9,270.1,310.8,271.7,308.5,271.4z"/>
	<path class="st10" d="M216.2,164.3l-1.9,40.5c1.5,0.1,3.7,0.4,6.5,0.6c0,0,3.9,0.4,8.5,0.8c5.6,0.5,8.4,0.5,9.1-0.3
		c2.1-2.6-3.8-10.3-4.7-11.5c2.3,0.5,6.3,0.9,9.5-1.3c2.3-1.6,3.4-4.1,5.3-12.5c2.1-9.1,3.2-13.7,2.9-15.6c-0.4-3.2-1.6-5.5-2.2-6.6
		c-4.1-8-11.6-11.6-14.8-12.8c-0.3,0-0.7-0.1-1-0.1C222.8,144.9,216.4,153.6,216.2,164.3z"/>
	<path class="st12" d="M238.8,199.8c-4.7-0.4-9.2-2.2-12.9-5.2c0,0,2.4,7.6,12.6,7.8L238.8,199.8z"/>
	<path class="st6" d="M247.8,171.4c-0.1,0.8-0.8,1.4-1.6,1.3c-0.8,0-1.4-0.7-1.4-1.4c0,0,0,0,0,0c0.1-0.8,0.8-1.4,1.6-1.3
		C247.2,170,247.8,170.6,247.8,171.4C247.8,171.4,247.8,171.4,247.8,171.4z"/>
	<path class="st6" d="M248.8,169.7c-0.2,0.2-1.2-0.8-2.8-0.9s-2.8,0.5-2.9,0.3s0.1-0.4,0.7-0.7c0.7-0.4,1.6-0.6,2.4-0.5
		c0.8,0.1,1.6,0.4,2.2,1C248.7,169.2,248.9,169.6,248.8,169.7z"/>
	<path class="st6" d="M232.4,170.3c-0.1,0.8-0.8,1.4-1.6,1.3c-0.8,0-1.4-0.7-1.4-1.5c0,0,0,0,0,0c0.1-0.8,0.8-1.4,1.6-1.3
		C231.8,168.9,232.4,169.5,232.4,170.3C232.4,170.3,232.4,170.3,232.4,170.3z"/>
	<path class="st6" d="M233.4,168.3c-0.2,0.2-1.2-0.8-2.8-0.9s-2.8,0.5-2.9,0.3s0.1-0.4,0.7-0.7c0.7-0.4,1.6-0.6,2.4-0.5
		c0.8,0.1,1.6,0.4,2.2,1C233.3,167.9,233.4,168.3,233.4,168.3z"/>
	<path class="st6" d="M237.8,180.5c0.9-0.2,1.7-0.2,2.6-0.2c0.4,0,0.8,0,0.9-0.3c0.1-0.4,0-0.8-0.1-1.2c-0.3-1-0.6-2.1-0.9-3.2
		c-1.2-4.5-2-8.2-1.8-8.2s1.3,3.6,2.5,8.1c0.3,1.1,0.6,2.2,0.8,3.2c0.2,0.5,0.2,1.1,0,1.6c-0.1,0.3-0.4,0.5-0.7,0.5
		c-0.2,0-0.5,0-0.7,0C239.5,180.8,238.6,180.7,237.8,180.5z"/>
	<path class="st6" d="M234.4,162.2c-0.2,0.4-1.7,0-3.6,0.1s-3.4,0.4-3.6,0c-0.1-0.2,0.2-0.6,0.9-0.9c1.7-0.9,3.8-0.9,5.5,0
		C234.2,161.7,234.5,162.1,234.4,162.2z"/>
	<path class="st6" d="M248.7,165.1c-0.3,0.3-1.4-0.2-2.6-0.3s-2.4,0-2.6-0.4c-0.1-0.2,0.1-0.5,0.6-0.8c0.7-0.3,1.5-0.5,2.2-0.4
		c0.7,0.1,1.4,0.4,2,0.9C248.7,164.6,248.8,164.9,248.7,165.1z"/>
	<path class="st12" d="M213.6,179.1c0,0-0.1,0.1-0.3,0.2c-0.3,0.1-0.6,0.1-0.9-0.1c-0.9-0.7-1.3-1.7-1.2-2.8c0-0.6,0.2-1.2,0.5-1.7
		c0.2-0.4,0.5-0.8,1-0.9c0.3,0,0.6,0.1,0.7,0.4c0.1,0.2,0,0.3,0.1,0.4s0.2-0.1,0.1-0.4c0-0.2-0.1-0.3-0.2-0.4
		c-0.2-0.2-0.4-0.2-0.7-0.2c-0.6,0.1-1.1,0.5-1.4,1c-0.3,0.6-0.5,1.2-0.6,1.9c-0.1,1.4,0.6,2.8,1.6,3.1c0.4,0.1,0.8,0.1,1.1-0.1
		C213.6,179.3,213.6,179.2,213.6,179.1z"/>
	<path class="st13" d="M251.5,164.9c-0.8-4.5-4-9.9-9.7-11.9c-4.6-1.7-8.9-0.3-10.3,0.2c-3.5,1.1-5.8,3.1-7,4.3
		c-1.1,1.6-2.6,4.2-3.5,7.6c-0.7,2.8-0.9,5.3-0.8,7c0,1.2-0.2,5.7,0.5,9c1.5,7.3,7.3,12.4,10.2,14.6c1.2,0.8,3.2,2,5.7,3
		c3.9,1.6,5.4,1.5,8,3c1.5,0.9,4.8,2.9,5.1,5.7c0.7,5.6-11.1,11.4-18.8,13.3c-4.4,1.1-7.2,0.9-9.5,0c-2.3-0.8-3.7-2.1-5.7-4
		c-2.5-2.3-5.7-5.3-7.4-9c-1.8-4.2,0-5.4,1.2-18c0.7-7,0.3-10.5,1.6-17.9c1.3-7.2,3.6-12,5.1-15.1c2.2-4.5,3.5-7.1,6.4-9.3
		c3.9-2.9,8.7-4.1,13.5-3.5c6.9,0.9,11.2,4.7,12.6,6.1c0.5,0.5,2.3,2.4,3.8,5.4c5.9,12.1-0.9,28.8-8.1,46.3
		c-0.4,0.9-0.5,3.2-1.9,3.8c-2.3,1-6.7-2.5-6.4-4.8c0.3-1.9,3.8-3.6,3.8-3.6l0,0c4.3-3.9,4.5-4,4.5-4c3.8-3.6,4.7-9.3,6.4-20.5
		C251.8,166.9,251.6,165.6,251.5,164.9z"/>
	
		<ellipse transform="matrix(0.4538 -0.8911 0.8911 0.4538 -35.9829 311.7811)" class="st14" cx="236.3" cy="185.2" rx="2.5" ry="2.5"/>
	<path class="st6" d="M233.1,181.1c0.2,0,0.1,1.7,1.4,3.1s5.9,0,5.9,0.3s-3.2,1.6-4,1.6c-1-0.1-1.9-0.5-2.6-1.2
		c-0.7-0.7-1.1-1.6-1.1-2.6C232.7,181.5,233,181.1,233.1,181.1z"/>
	<path class="st6" d="M194.3,163.4"/>
</g>
<g id="Plant--inject-106">
	<path class="st7" d="M58.3,378.1c3.6-1.7,7.7-2.2,11.7-1.4c2.1,0.4,4.3,1,5.8,2.6s1.7,4.4,0.1,5.8c-1.1,0.7-2.4,1-3.7,0.9
		c-3.1,0-6.5-0.6-9,1.3c-1.4,1.1-2.4,2.8-4,3.4c-1.7,0.4-3.5-0.4-4.4-2c-0.8-1.5-1-3.3-0.5-5C54.7,381.3,56.2,379.2,58.3,378.1z"/>
	<path class="st7" d="M50.2,362.3c2.2,3.1,6.4,2.1,8.4,0.2s2.8-4.6,3.5-7.3c1.7-6,3.5-12.3,2.2-18.4c-0.3-1.9-1.1-3.6-2.4-5
		c-1.3-1.4-3.2-2.1-5.1-1.7c-2.1,0.6-3.5,2.7-4.4,4.6c-2.8,5.9-4.3,12.3-4.3,18.8C48.1,356.6,48.4,359.8,50.2,362.3"/>
	<path class="st7" d="M44.2,366.8c2.3-3,2.9-6.9,1.8-10.4c-1.2-3.5-3.3-6.6-6.2-9c-3.2-2.9-6.9-5.1-11-6.5c-1.6-0.6-3.3-0.9-5-0.8
		c-1.7,0.1-3.3,1-4.2,2.5c-1.2,2.2,0,4.9,1.2,7.1c2.1,3.9,4.6,7.6,7.3,11.1c2.2,2.8,4.7,5.6,8,6.8s6.8,1.1,8.5-1.2"/>
	<path class="st6" d="M50,409.3c0.1-0.5,0.2-0.9,0.2-1.4c0.1-1,0.2-2.3,0.4-3.9c0.2-1.9,0.5-3.8,0.9-5.7c0.5-2.3,1.2-4.5,2.1-6.7
		c0.9-2.2,2-4.2,3.4-6c1.1-1.5,2.6-2.8,4.3-3.6c1.1-0.6,2.4-1,3.6-1.1c0.5,0,0.9-0.1,1.4-0.2c-0.5,0-1,0-1.4,0
		c-1.3,0.1-2.6,0.4-3.8,1c-1.8,0.8-3.3,2.1-4.5,3.6c-1.5,1.9-2.6,3.9-3.5,6.2c-0.9,2.2-1.5,4.5-2,6.8c-0.4,1.9-0.6,3.8-0.8,5.7
		c-0.1,1.6-0.2,3-0.2,3.9C50,408.3,50,408.8,50,409.3z"/>
	<path class="st6" d="M50.3,406.3c0-0.2,0-0.4,0-0.6c0-0.5,0-1.1,0-1.9c0-1.6,0-4,0.1-6.9c0.1-5.8,0.6-12.1,1.6-20.9
		c0.9-8.3,2.2-18,3.5-24.3c0.3-1.4,0.5-2.7,0.8-3.8s0.5-2.1,0.7-2.9s0.3-1.4,0.4-1.8c0.1-0.2,0.1-0.4,0.1-0.6
		c-0.1,0.2-0.2,0.4-0.2,0.6c-0.2,0.5-0.3,1.1-0.5,1.8s-0.5,1.8-0.8,2.9s-0.6,2.4-0.9,3.8c-1.6,7.4-2.8,14.9-3.6,22.5
		C50.5,383,50,391,50,396.9c0,2.9,0,5.3,0.1,6.9c0,0.8,0.1,1.4,0.1,1.9C50.2,405.9,50.2,406.1,50.3,406.3z"/>
	<path class="st6" d="M50.3,390.8c0.1-0.7,0.1-1.3,0-2c-0.1-1.8-0.3-3.6-0.6-5.3c-0.4-2.6-1-5.2-1.7-7.7c-0.8-3.1-1.9-6.2-3.2-9.2
		c-2.2-5.5-5.5-10.5-9.5-14.8c-0.7-0.7-1.5-1.4-2.2-2.1c-0.3-0.3-0.7-0.6-1-0.8l-0.9-0.6c-0.5-0.4-1.1-0.8-1.6-1.1
		c1.9,1.5,3.7,3.1,5.4,4.8c3.9,4.4,7,9.3,9.3,14.8c1.3,2.9,2.4,6,3.3,9.1c0.8,2.9,1.4,5.5,1.8,7.7s0.6,4,0.8,5.3
		C50.1,389.5,50.2,390.1,50.3,390.8z"/>
	<polygon class="st6" points="35.3,418.2 36.8,439.5 64.3,439.5 65.8,418.2 	"/>
	<rect x="32.6" y="409.8" class="st6" width="36.5" height="8.4"/>
	<polygon class="st8" points="32.6,438.7 32.6,441 34.3,441 68.5,441 68.5,438.7 	"/>
	<polygon class="st8" points="36,445.1 34.3,441 67.2,441 65.2,445.1 	"/>
	<path class="st1" d="M65.3,425.2c0,0.1-0.1,0.1-0.1,0.2l-0.4,0.5l-1.6,2l-0.1,0.1l-0.1-0.1l-3.9-5.4h0.2l-3.9,5.5l-0.1,0.2
		l-0.1-0.2c-1.4-1.7-3-3.5-4.6-5.5h0.3c-0.1,0.1-0.2,0.2-0.2,0.3l-4.1,5.1l-0.1,0.2l-0.1-0.2l-3.9-5.5h0.2l-4.8,5.5l-0.1,0.1
		l-0.1-0.1c-0.6-1-1.1-1.9-1.5-2.5l-0.4-0.7l-0.1-0.2c0,0,0.1,0.1,0.2,0.2l0.4,0.6l1.6,2.5h-0.2l4.7-5.5l0.1-0.1l0.1,0.1l3.9,5.4
		h-0.3l4.1-5.1l0.2-0.3l0.1-0.2l0.1,0.2l4.6,5.5h-0.3l3.9-5.4l0.1-0.2l0.1,0.2l3.8,5.5H63l1.7-2l0.4-0.5
		C65.2,425.2,65.3,425.1,65.3,425.2z"/>
	<path class="st8" d="M66.2,418c0,0.1-6.9,0.2-15.3,0.2s-15.3-0.1-15.3-0.2s6.9-0.2,15.3-0.2S66.2,418,66.2,418z"/>
	<path class="st6" d="M67.6,441.3c0,0.1-7.5,0.2-16.7,0.2s-16.7-0.1-16.7-0.2s7.5-0.2,16.7-0.2S67.6,441.2,67.6,441.3z"/>
</g>
<g id="Devices--inject-106">
	<polygon class="st6" points="391.7,195.6 372.7,275.2 378,275.2 396.8,195.6 	"/>
	<path class="st6" d="M384.4,248c-0.3,1.5,8.6,44.9,8.6,44.9h-4.3l-6.8-34.4L384.4,248z"/>
	<rect x="358.6" y="350.3" class="st7" width="89.2" height="94.6"/>
	<rect x="447.8" y="364.1" class="st6" width="4.4" height="4.4"/>
	<rect x="447.8" y="378.1" class="st6" width="4.4" height="4.4"/>
	<rect x="447.8" y="392" class="st6" width="4.4" height="4.4"/>
	<rect x="447.8" y="405.9" class="st6" width="4.4" height="4.4"/>
	<path class="st6" d="M452.4,393.2c0.4-0.1,0.9-0.2,1.3-0.3c1.2-0.2,2.5-0.4,3.8-0.4c1.9,0,3.8,0.5,5.4,1.4c2.1,1.3,3.2,3.6,3,6
		c-0.1,1.2-0.5,2.4-1.1,3.4c-0.6,1-1.4,1.8-2.3,2.4c-1.5,1.1-3.3,1.8-5.2,2.1c-1.2,0.2-2.5,0.2-3.8,0.1c-0.5,0-0.9-0.1-1.4-0.2
		c0.5,0,0.9,0,1.4,0c1.2,0,2.5-0.1,3.7-0.3c1.8-0.3,3.5-1,5-2.1c1.8-1.3,3-3.3,3.2-5.5c0.2-2.2-0.8-4.4-2.8-5.6
		c-1.6-1-3.3-1.5-5.2-1.5c-1.2,0-2.5,0-3.7,0.2C453.3,393.2,452.8,393.3,452.4,393.2z"/>
	<path class="st6" d="M451.3,379.4c0.1-0.1,0.3-0.2,0.4-0.2c0.4-0.2,0.9-0.4,1.3-0.5c1.7-0.5,3.4-0.6,5.1-0.3
		c0.6,0.1,1.1,0.3,1.6,0.6c0.6,0.4,1,0.9,1.1,1.6c0.5,2.2-0.7,4.5-2.9,5.4c-0.8,0.3-1.7,0.3-2.4-0.1c-0.8-0.4-1.3-1.2-1.4-2.1
		c0-0.9,0.6-1.8,1.4-2.2c0.8-0.4,1.7-0.5,2.5-0.3c0.8,0.2,1.6,0.5,2.2,1.1c1.2,1,2,2.4,2.2,4c0.1,1.4-0.3,2.9-1.1,4
		c-0.7,1-1.7,1.8-2.7,2.3c-1.6,0.8-3.3,1.2-5,1.3c-0.6,0-1.1,0.1-1.4,0.1c-0.2,0-0.3,0-0.5,0c0,0,0.7-0.1,1.9-0.2
		c1.7-0.2,3.3-0.7,4.8-1.4c1-0.6,1.9-1.3,2.6-2.2c0.8-1,1.1-2.4,1-3.6c-0.2-1.4-0.9-2.7-2.1-3.6c-0.6-0.5-1.3-0.8-2-1
		c-0.7-0.2-1.5-0.1-2.2,0.2c-0.7,0.3-1.1,1-1.1,1.7c0.1,0.7,0.5,1.3,1.1,1.6c0.6,0.3,1.3,0.4,2,0.1c0.6-0.2,1.2-0.7,1.6-1.2
		c0.9-1,1.3-2.3,1-3.6c-0.4-1.1-1.3-1.9-2.5-2c-1.7-0.4-3.4-0.3-5,0.1C451.9,379.1,451.3,379.5,451.3,379.4z"/>
	<path class="st6" d="M451.3,365.9c0.3-0.1,0.7-0.2,1-0.2c0.9-0.1,1.8,0,2.7,0.3c1.3,0.4,2.4,1.2,3.3,2.2c1.1,1.3,1.7,2.9,1.7,4.6
		c0.1,1.7-0.4,3.3-1.4,4.7c-0.8,1.1-1.9,1.9-3.2,2.4c-0.8,0.4-1.7,0.5-2.6,0.5c-0.3,0-0.7,0-1-0.1c1.2,0,2.4-0.3,3.5-0.8
		c1.2-0.5,2.2-1.4,3-2.4c1.8-2.6,1.7-6.2-0.3-8.7c-0.8-1-1.9-1.7-3.1-2.2C453.7,366,452.5,365.8,451.3,365.9z"/>
	<path class="st6" d="M385.1,300.1c0.3,0.6,0.6,1.2,0.8,1.8c0.5,1.8,0.9,3.6,1.2,5.4c0.4,2.4,0.7,5.3,1,8.6s0.6,7.2,1.1,11.5
		c0.1,1,0.3,2.1,0.5,3.2c0.2,1.1,0.5,2.2,1,3.2c0.6,1,1.3,1.9,2.2,2.7c2.7,2.6,6.3,4.3,10.1,4.7c2.7,0.3,5.4-0.2,7.9-1.4
		c2.6-1.3,4.4-3.6,5.1-6.4c0.3-1.4,0.2-2.9-0.3-4.2c-0.6-1.4-1.5-2.5-2.8-3.4c-1.3-0.8-2.7-1.3-4.2-1.4c-1.5-0.1-3,0.4-4.3,1.2
		c-0.6,0.4-1.1,1-1.5,1.7c-0.3,0.7-0.4,1.4-0.3,2.2c0.4,1.5,1.4,2.8,2.8,3.5c1.4,0.7,3,1.1,4.6,1.3c1.6,0.2,3.2,0.3,4.7,0.3
		c3.1,0,6.2-0.2,9.3-0.5c6.1-0.7,12-1.7,17.6-1.7s11.1,0.7,15.7,3c2.2,1.1,4.2,2.5,5.8,4.4c1.5,1.7,2.5,3.8,3,6
		c0.8,3.8,0.2,7.8-1.8,11.2c-1.5,2.5-3.5,4.7-5.9,6.3c-1.5,1-3.2,1.9-4.9,2.5c-0.6,0.2-1.2,0.4-1.8,0.5l0.5-0.2
		c0.3-0.1,0.8-0.3,1.3-0.5c1.7-0.7,3.3-1.5,4.8-2.6c2.4-1.6,4.4-3.8,5.8-6.3c1.8-3.4,2.4-7.3,1.6-11c-0.5-2.2-1.5-4.2-3-5.8
		c-1.6-1.8-3.6-3.2-5.7-4.2c-4.5-2.2-9.9-3-15.5-2.9s-11.5,1-17.6,1.7c-3.1,0.4-6.2,0.6-9.4,0.5c-1.6,0-3.2-0.1-4.8-0.3
		c-1.6-0.1-3.3-0.6-4.7-1.3c-1.5-0.8-2.6-2.2-3-3.9c-0.2-0.8,0-1.7,0.3-2.5c0.4-0.8,0.9-1.4,1.6-1.9c1.3-1,3-1.4,4.6-1.4
		c1.6,0.1,3.2,0.6,4.5,1.5c1.3,0.9,2.3,2.1,3,3.6c0.6,1.5,0.7,3,0.3,4.5c-0.7,2.9-2.7,5.4-5.4,6.7c-2.5,1.2-5.4,1.7-8.1,1.4
		c-2.6-0.3-5.1-1.1-7.4-2.5c-1.1-0.7-2.1-1.4-3-2.3c-0.9-0.8-1.7-1.8-2.3-2.8c-0.5-1.1-0.8-2.2-1-3.3c-0.2-1.1-0.4-2.2-0.5-3.2
		c-0.5-4.2-0.8-8.1-1.1-11.5s-0.6-6.3-0.9-8.6c-0.2-1.8-0.6-3.6-1.1-5.4c-0.1-0.5-0.3-0.9-0.5-1.4
		C385.2,300.4,385.1,300.2,385.1,300.1z"/>
	<path class="st6" d="M442.8,441c0,0,0-0.1,0-0.4s0-0.7,0-1.2c0-1.1,0-2.6,0-4.7c0-4.1,0-10.1-0.1-17.7c0-15.2-0.1-36.9-0.1-62.9
		l0.2,0.2h-80.6l0,0l0.3-0.3c0,32,0,61.8,0,86.9l-0.2-0.2l58.4,0.1l16.4,0.1h4.3h1.5h-1.5L437,441l-16.3,0.1l-58.6,0.1h-0.2V441
		c0-25.1,0-55,0-86.9v-0.3h0.3h80.6h0.2v0.2c0,26-0.1,47.8-0.1,63c0,7.6,0,13.6-0.1,17.7c0,2,0,3.6,0,4.6c0,0.5,0,0.9,0,1.2
		S442.8,441,442.8,441z"/>
	<path class="st6" d="M420,364.7c0,0.2-0.2,0.4-0.4,0.4c0,0,0,0,0,0c-0.2,0-0.4-0.1-0.5-0.4s0.1-0.4,0.4-0.5c0,0,0.1,0,0.1,0
		C419.8,364.3,420,364.5,420,364.7z"/>
	<path class="st6" d="M422.3,364.7c0,0.2-0.2,0.4-0.4,0.4c0,0,0,0,0,0c-0.2,0-0.4-0.1-0.5-0.4s0.1-0.4,0.4-0.5c0,0,0.1,0,0.1,0
		C422.1,364.3,422.3,364.5,422.3,364.7z"/>
	<path class="st6" d="M424.6,364.7c0,0.2-0.2,0.4-0.4,0.4c0,0,0,0,0,0c-0.2,0-0.4-0.1-0.5-0.4s0.1-0.4,0.4-0.5c0,0,0.1,0,0.1,0
		C424.4,364.3,424.6,364.5,424.6,364.7z"/>
	<path class="st6" d="M426.9,364.7c0,0.2-0.2,0.4-0.4,0.4s-0.4-0.2-0.4-0.4s0.2-0.4,0.4-0.4c0,0,0,0,0,0
		C426.7,364.3,426.9,364.5,426.9,364.7z"/>
	<path class="st6" d="M429.1,364.7c0,0.2-0.2,0.4-0.4,0.4h0c-0.2,0-0.4-0.3-0.4-0.5c0-0.2,0.2-0.3,0.4-0.4
		C429,364.3,429.1,364.5,429.1,364.7z"/>
	<path class="st6" d="M431.4,364.7c0,0.2-0.2,0.4-0.4,0.4h0c-0.2,0-0.4-0.3-0.4-0.5c0-0.2,0.2-0.3,0.4-0.4
		C431.2,364.3,431.4,364.5,431.4,364.7z"/>
	<path class="st6" d="M433.7,364.7c0,0.2-0.2,0.4-0.4,0.4h0c-0.2,0-0.4-0.3-0.4-0.5c0-0.2,0.2-0.3,0.4-0.4
		C433.5,364.3,433.7,364.5,433.7,364.7z"/>
	<circle class="st6" cx="432.2" cy="366.3" r="0.4"/>
	<circle class="st6" cx="429.9" cy="366.3" r="0.4"/>
	<path class="st6" d="M428,366.3c0,0.2-0.2,0.4-0.4,0.4l0,0c-0.2,0-0.4-0.2-0.4-0.4c0,0,0,0,0,0c0-0.2,0.2-0.4,0.4-0.4h0
		C427.8,365.8,428,366,428,366.3C428,366.3,428,366.3,428,366.3z"/>
	<circle class="st6" cx="425.2" cy="366.3" r="0.4"/>
	<circle class="st6" cx="422.9" cy="366.3" r="0.4"/>
	<path class="st6" d="M421,366.3c0,0.2-0.2,0.4-0.4,0.4c0,0,0,0,0,0c-0.2,0-0.4-0.2-0.4-0.4l0,0c0-0.2,0.2-0.4,0.4-0.4c0,0,0,0,0,0
		C420.8,365.8,421,366,421,366.3L421,366.3z"/>
	<path class="st6" d="M420,368c0,0.2-0.2,0.4-0.4,0.4l0,0c-0.2,0-0.4-0.2-0.4-0.4c0,0,0,0,0,0c0-0.2,0.2-0.4,0.4-0.4h0
		C419.8,367.6,420,367.8,420,368C420,368,420,368,420,368z"/>
	<path class="st6" d="M422.3,368c0,0.2-0.2,0.4-0.4,0.4l0,0c-0.2,0-0.4-0.2-0.4-0.4c0,0,0,0,0,0c0-0.2,0.2-0.4,0.4-0.4h0
		C422.1,367.6,422.3,367.8,422.3,368C422.3,368,422.3,368,422.3,368z"/>
	<path class="st6" d="M424.6,368c0,0.2-0.2,0.4-0.4,0.4l0,0c-0.2,0-0.4-0.2-0.4-0.4c0,0,0,0,0,0c0-0.2,0.2-0.4,0.4-0.4h0
		C424.4,367.6,424.6,367.8,424.6,368C424.6,368,424.6,368,424.6,368z"/>
	<path class="st6" d="M426.9,368c0,0.2-0.3,0.4-0.5,0.4c-0.2,0-0.3-0.2-0.4-0.4c0-0.2,0.1-0.4,0.4-0.5s0.4,0.1,0.5,0.4
		C426.9,367.9,426.9,368,426.9,368z"/>
	<path class="st6" d="M429.1,368c0,0.2-0.2,0.4-0.4,0.4c0,0,0,0,0,0c-0.2,0-0.4-0.2-0.4-0.4l0,0c0-0.2,0.2-0.4,0.4-0.4c0,0,0,0,0,0
		C429,367.6,429.1,367.8,429.1,368L429.1,368z"/>
	<path class="st6" d="M431.4,368c0,0.2-0.2,0.4-0.4,0.4c0,0,0,0,0,0c-0.2,0-0.4-0.2-0.4-0.4l0,0c0-0.2,0.2-0.4,0.4-0.4c0,0,0,0,0,0
		C431.2,367.6,431.4,367.8,431.4,368L431.4,368z"/>
	<path class="st6" d="M433.7,368c0,0.2-0.2,0.4-0.4,0.4c0,0,0,0,0,0c-0.2,0-0.4-0.2-0.4-0.4l0,0c0-0.2,0.2-0.4,0.4-0.4c0,0,0,0,0,0
		C433.5,367.6,433.7,367.8,433.7,368L433.7,368z"/>
	<path class="st6" d="M432.7,369.5c0,0.2-0.2,0.4-0.4,0.4h0c-0.2,0-0.4-0.2-0.4-0.4c0,0,0,0,0,0c0-0.2,0.2-0.4,0.4-0.4l0,0
		C432.5,369.1,432.7,369.3,432.7,369.5C432.7,369.5,432.7,369.5,432.7,369.5z"/>
	<path class="st6" d="M430.3,369.5c0,0.2-0.2,0.4-0.4,0.4c0,0,0,0,0,0c-0.2,0-0.4-0.2-0.4-0.4v0c0-0.2,0.2-0.4,0.4-0.4c0,0,0,0,0,0
		C430.1,369.1,430.3,369.3,430.3,369.5L430.3,369.5z"/>
	<path class="st6" d="M428,369.5c0,0.2-0.2,0.4-0.4,0.4c0,0,0,0,0,0c-0.2,0-0.4-0.2-0.4-0.4v0c0-0.2,0.2-0.4,0.4-0.4c0,0,0,0,0,0
		C427.8,369.1,428,369.3,428,369.5L428,369.5z"/>
	<path class="st6" d="M425.7,369.5c0,0.2-0.2,0.4-0.4,0.4c0,0,0,0,0,0c-0.2,0-0.4-0.2-0.4-0.4v0c0-0.2,0.2-0.4,0.4-0.4c0,0,0,0,0,0
		C425.5,369.1,425.7,369.3,425.7,369.5L425.7,369.5z"/>
	<path class="st6" d="M423.3,369.5c0,0.2-0.1,0.4-0.4,0.5s-0.4-0.1-0.5-0.4c0,0,0-0.1,0-0.1c0-0.2,0.3-0.4,0.5-0.4
		C423.2,369.2,423.3,369.3,423.3,369.5z"/>
	<path class="st6" d="M421,369.5c0,0.2-0.2,0.4-0.4,0.4h0c-0.2,0-0.4-0.2-0.4-0.4c0,0,0,0,0,0c0-0.2,0.2-0.4,0.4-0.4l0,0
		C420.8,369.1,421,369.3,421,369.5C421,369.5,421,369.5,421,369.5z"/>
	<path class="st6" d="M420,371.3c0,0.2-0.2,0.4-0.4,0.4c0,0,0,0,0,0c-0.2,0-0.4-0.2-0.4-0.4v0c0-0.2,0.2-0.4,0.4-0.4c0,0,0,0,0,0
		C419.8,370.9,420,371,420,371.3L420,371.3z"/>
	<path class="st6" d="M422.3,371.3c0,0.2-0.2,0.4-0.4,0.4c0,0,0,0,0,0c-0.2,0-0.4-0.2-0.4-0.4v0c0-0.2,0.2-0.4,0.4-0.4c0,0,0,0,0,0
		C422.1,370.9,422.3,371,422.3,371.3L422.3,371.3z"/>
	<path class="st6" d="M424.6,371.3c0,0.2-0.2,0.4-0.4,0.4c0,0,0,0,0,0c-0.2,0-0.4-0.2-0.4-0.4v0c0-0.2,0.2-0.4,0.4-0.4c0,0,0,0,0,0
		C424.4,370.9,424.6,371,424.6,371.3L424.6,371.3z"/>
	<path class="st6" d="M426.9,371.3c0,0.2-0.1,0.4-0.4,0.5s-0.4-0.1-0.5-0.4c0,0,0-0.1,0-0.1c0-0.2,0.3-0.4,0.5-0.4
		C426.7,370.9,426.8,371.1,426.9,371.3z"/>
	<path class="st6" d="M429.1,371.3c0,0.2-0.2,0.4-0.4,0.4h0c-0.2,0-0.4-0.2-0.4-0.4c0,0,0,0,0,0c0-0.2,0.2-0.4,0.4-0.4l0,0
		C429,370.8,429.1,371,429.1,371.3C429.1,371.3,429.1,371.3,429.1,371.3z"/>
	<path class="st6" d="M431.4,371.3c0,0.2-0.2,0.4-0.4,0.4h0c-0.2,0-0.4-0.2-0.4-0.4c0,0,0,0,0,0c0-0.2,0.2-0.4,0.4-0.4l0,0
		C431.2,370.8,431.4,371,431.4,371.3C431.4,371.3,431.4,371.3,431.4,371.3z"/>
	<path class="st6" d="M433.7,371.3c0,0.2-0.2,0.4-0.4,0.4h0c-0.2,0-0.4-0.2-0.4-0.4c0,0,0,0,0,0c0-0.2,0.2-0.4,0.4-0.4l0,0
		C433.5,370.8,433.7,371,433.7,371.3C433.7,371.3,433.7,371.3,433.7,371.3z"/>
	<circle class="st6" cx="432.2" cy="372.8" r="0.4"/>
	<circle class="st6" cx="429.9" cy="372.8" r="0.4"/>
	<path class="st6" d="M428,372.8c0,0.2-0.2,0.4-0.4,0.4l0,0c-0.2,0-0.4-0.1-0.5-0.4s0.1-0.4,0.4-0.5c0,0,0.1,0,0.1,0
		C427.8,372.4,428,372.6,428,372.8C428,372.8,428,372.8,428,372.8z"/>
	<circle class="st6" cx="425.2" cy="372.8" r="0.4"/>
	<circle class="st6" cx="422.9" cy="372.8" r="0.4"/>
	<path class="st6" d="M421,372.8c0,0.2-0.2,0.4-0.4,0.4c-0.2,0-0.4-0.3-0.4-0.5c0-0.2,0.2-0.3,0.4-0.4
		C420.8,372.4,421,372.6,421,372.8z"/>
	<path class="st1" d="M388.5,271.3c0.6,0,1.1,0.1,1.6,0.3c1.5,0.5,2.9,1.4,3.9,2.6c1.6,1.9,2.8,4.2,3.5,6.6c1,3.2,1.7,6.4,2.2,9.7
		c1.1,8.5,1.3,17.2,0.6,25.8c-0.1,2.5-0.9,5-2.2,7.1c-0.7,1.1-1.7,2-2.8,2.7c-1.2,0.7-2.5,1.1-3.9,0.9c-1.4-0.1-2.7-0.7-3.7-1.7
		c-0.5-0.5-0.9-1.1-1.1-1.8c-0.2-0.7-0.2-1.4,0-2.1c0.4-1.4,1.4-2.6,2.8-3.1c0.7-0.3,1.5-0.3,2.2,0c0.7,0.3,1.3,0.7,1.8,1.3
		c0.9,1.2,1.2,2.7,1,4.1c-0.2,1.4-0.7,2.7-1.5,3.9c-4.1,7.2-13.2,9.9-20.5,5.9c-2.1-1.2-3.9-2.7-5.4-4.6c-1.4-1.8-2.5-3.7-3.3-5.8
		c-1.3-3.8-2.1-7.8-2.2-11.8c-0.2-3.7,0-7-0.4-9.9c-0.2-1.3-0.5-2.6-0.9-3.9c-0.4-1.1-1-2-1.7-2.9c-1-1.2-2.2-2.2-3.7-2.8
		c-0.5-0.2-1.1-0.3-1.6-0.4c0.6,0,1.1,0.1,1.6,0.3c1.5,0.5,2.8,1.5,3.8,2.7c0.7,0.9,1.3,1.9,1.8,3c0.5,1.3,0.8,2.6,1,4
		c0.4,2.9,0.2,6.2,0.4,9.9c0.1,4,0.9,7.9,2.2,11.7c0.8,2.1,1.9,4,3.2,5.7c1.4,1.8,3.2,3.4,5.3,4.5c7.1,3.8,15.9,1.2,19.8-5.8
		c0.7-1.2,1.2-2.4,1.4-3.8c0.2-1.3-0.1-2.7-0.9-3.8c-0.4-0.5-0.9-0.9-1.5-1.2c-0.6-0.2-1.3-0.2-1.9,0c-1.2,0.5-2.1,1.5-2.5,2.8
		c-0.3,1.3,0.1,2.6,1,3.5c0.9,0.9,2.1,1.5,3.4,1.6c1.3,0.1,2.5-0.2,3.6-0.9c1.1-0.7,2-1.5,2.7-2.6c1.3-2.1,2-4.5,2.2-6.9
		c0.7-8.5,0.5-17.1-0.5-25.6c-0.5-3.3-1.2-6.5-2.1-9.6c-0.6-2.4-1.8-4.6-3.4-6.5c-1-1.2-2.3-2.1-3.8-2.6
		C389.6,271.6,389,271.4,388.5,271.3z"/>
	<rect x="347.4" y="285.8" class="st1" width="33.2" height="6.3"/>
	<rect x="97.5" y="351.2" class="st6" width="43.3" height="93.3"/>
	<path class="st8" d="M137.1,434.6c0,0,0-0.1,0-0.4s0-0.7,0-1.2c0-1,0-2.5,0-4.5c0-3.9,0-9.5-0.1-16.7c0-14.2-0.1-34.2-0.1-57.5
		l0.2,0.2h-36.2l0,0l0.3-0.3c0,31.2,0,59.5-0.1,80.2l-0.2-0.2l26.5,0.1l7.2,0h1.9C137,434.6,137.2,434.6,137.1,434.6l-0.5-0.1h-1.9
		h-7.2l-26.6,0.1h-0.2v-0.2c0-20.8,0-49.1-0.1-80.2V354h36.8v0.2c0,23.4-0.1,43.4-0.1,57.7c0,7.1,0,12.7-0.1,16.6c0,1.9,0,3.4,0,4.4
		c0,0.5,0,0.9,0,1.1S137.1,434.6,137.1,434.6z"/>
	<path class="st8" d="M134.9,361.2c0,0,0-0.4,0-1s0-1.6-0.1-2.7l0.1,0.1c-5.6,0.1-17.6,0.1-31.5,0.1l0,0l0.3-0.3l0,0v1.9
		c0,0.6,0,1.2,0,1.8l-0.2-0.3c8.8,0,16.7,0.1,22.3,0.1l6.7,0.1h1.8c0.2,0,0.4,0,0.7,0c-0.2,0-0.4,0-0.6,0h-1.8l-6.6,0.1
		c-5.7,0.1-13.6,0.1-22.5,0.1h-0.3v-3.9l0,0l0.3-0.3l0,0c13.9,0,25.9,0.1,31.5,0.1h0v0.1c0,1.2,0,2.1-0.1,2.8
		C134.9,360.5,134.9,360.9,134.9,361.2z"/>
	<path class="st8" d="M106.5,363.9c0,0.1-0.7,0.3-1.4,0.3s-1.5-0.1-1.5-0.3s0.7-0.3,1.5-0.3S106.5,363.7,106.5,363.9z"/>
	<path class="st8" d="M134.1,368.7c0,0.1-6.7,0.3-15,0.3s-15-0.1-15-0.3s6.7-0.3,15-0.3S134.1,368.5,134.1,368.7z"/>
	<path class="st8" d="M134.2,374.5c0,0.1-6.6,0.3-14.7,0.3s-14.7-0.1-14.7-0.3s6.6-0.3,14.7-0.3S134.2,374.3,134.2,374.5z"/>
	<circle class="st7" cx="119.1" cy="388.1" r="2.4"/>
	<path class="st8" d="M112.3,388c-1,0.3-2.1,0.3-3.2,0.3c-1.1,0.1-2.1,0-3.1-0.3c1-0.3,2.1-0.3,3.2-0.3
		C110.2,387.7,111.3,387.7,112.3,388z"/>
	<path class="st8" d="M131.7,387.3c-1,0.3-2,0.3-3,0.3c-1,0.1-2,0-3-0.3c1-0.3,2-0.3,3-0.3C129.7,387,130.7,387.1,131.7,387.3z"/>
	<path class="st6" d="M99,398c-0.5-0.1-1.1-0.2-1.6-0.3c-1.5-0.4-3-1.1-4.3-2c-2.1-1.4-3.8-3.3-5.2-5.4c-1.7-2.8-3-5.9-3.8-9.2
		c-1-3.9-1.4-7.9-1.2-11.9c0.3-4.7,1.8-9.1,4.6-12.9c1.5-2,3.3-3.8,5.4-5.2c1.1-0.7,2.3-1.3,3.5-1.7c1.3-0.4,2.5-0.7,3.9-0.9
		c2.6-0.4,5.3-0.3,8-0.5c2.7-0.1,5.4-0.7,7.9-1.8c2.5-1.1,4.3-3.4,4.9-6c1-4.5-1.8-9.1-6.3-10.1c-0.7-0.2-1.4-0.2-2.1-0.2
		c-1.2,0.1-2.4,0.5-3.3,1.2c-0.9,0.7-1.4,1.8-1.4,3c0.3,2.3,2.1,4.1,4.5,4.3c2.2,0,4.3-0.9,5.7-2.6c1.3-1.6,2.3-3.4,2.8-5.4
		c0.5-1.8,0.9-3.7,1.2-5.6c0.7-5.7,0.9-11.5,0.5-17.3c-0.1-2-0.2-3.6-0.2-4.7c0-0.5,0-0.9-0.1-1.2c0-0.1,0-0.3,0-0.4
		c0,0.1,0.1,0.3,0.1,0.4c0,0.3,0.1,0.7,0.1,1.2c0.1,1.1,0.2,2.7,0.3,4.7c0.4,5.8,0.3,11.6-0.4,17.4c-0.3,1.9-0.6,3.8-1.1,5.7
		c-0.5,2.1-1.5,4-2.8,5.6c-1.5,1.8-3.7,2.8-6.1,2.7c-2.6-0.2-4.6-2.2-4.9-4.7c-0.1-1.3,0.5-2.6,1.6-3.4c1-0.8,2.3-1.3,3.6-1.4
		c5-0.1,9,3.9,9.1,8.9c0,2.1-0.7,4.1-2,5.8c-0.9,1.1-2.1,2-3.3,2.6c-2.5,1.2-5.3,1.8-8.1,1.9c-2.7,0.2-5.4,0.1-8,0.5
		c-1.3,0.2-2.5,0.5-3.8,0.9c-1.2,0.4-2.3,1-3.4,1.7c-2.1,1.3-3.9,3-5.3,5c-2.7,3.7-4.2,8.1-4.5,12.7c-0.3,4,0.1,8,1.1,11.8
		c0.7,3.2,2,6.3,3.7,9.1c1.3,2.1,3,3.9,5,5.4c1.3,0.9,2.7,1.6,4.2,2.1c0.5,0.1,0.9,0.2,1.2,0.3C98.7,397.9,98.9,397.9,99,398z"/>
	<rect x="84.2" y="206.5" class="st6" width="102.6" height="70.5"/>
	<rect x="127.6" y="267.4" class="st6" width="14" height="26.6"/>
</g>
<g id="Desk--inject-106">
	<polygon class="st6" points="94.5,292.9 94.5,302.5 147.4,302.5 147.4,444.9 152.3,444.9 152.3,302.5 373.4,303.6 373.4,444.9 
		378.1,444.9 378.1,303.3 412.3,303.6 412.3,292.1 	"/>
	<polygon class="st6" points="128.3,300.6 149.2,315.6 147.4,317.4 126.3,301.5 	"/>
	<polygon class="st6" points="397.8,302 373.6,319.3 375.4,321 399.8,302.9 	"/>
	<rect x="171.4" y="289.4" class="st6" width="54.7" height="4"/>
</g>
<text transform="matrix(1 0 0 1 162.6978 50.3213)" class="st15 st16 st17">JavaScript</text>
</svg>
